<svg xmlns="http://www.w3.org/2000/svg" width="32" height="30">
  <path fill="#8c9eff" d="M 26.667969 8 C 26.667969 8 23.609375 5.609375 20 5.332031 L 19.675781 5.984375 C 22.9375 6.78125 24.4375 7.925781 26 9.332031 C 23.304688 7.957031 20.640625 6.667969 16 6.667969 C 11.359375 6.667969 8.695312 7.957031 6 9.332031 C 7.5625 7.925781 9.34375 6.65625 12.324219 5.984375 L 12 5.332031 C 8.210938 5.691406 5.332031 8 5.332031 8 C 5.332031 8 1.917969 12.949219 1.332031 22.667969 C 4.773438 26.636719 10 26.667969 10 26.667969 L 11.09375 25.210938 C 9.238281 24.566406 7.144531 23.414062 5.332031 21.332031 C 7.492188 22.964844 10.75 24.667969 16 24.667969 C 21.25 24.667969 24.507812 22.964844 26.667969 21.332031 C 24.855469 23.414062 22.761719 24.566406 20.90625 25.210938 L 22 26.667969 C 22 26.667969 27.226562 26.636719 30.667969 22.667969 C 30.082031 12.949219 26.667969 8 26.667969 8 Z M 11.667969 20 C 10.378906 20 9.332031 18.804688 9.332031 17.332031 C 9.332031 15.859375 10.378906 14.667969 11.667969 14.667969 C 12.957031 14.667969 14 15.859375 14 17.332031 C 14 18.804688 12.957031 20 11.667969 20 Z M 20.332031 20 C 19.042969 20 18 18.804688 18 17.332031 C 18 15.859375 19.042969 14.667969 20.332031 14.667969 C 21.621094 14.667969 22.667969 15.859375 22.667969 17.332031 C 22.667969 18.804688 21.621094 20 20.332031 20 Z M 20.332031 20 "/>
</svg>
