<svg
   width="200"
   height="200"
   viewBox="0 0 212 120"
   version="1.1"
   id="svg5694"
   inkscape:version="1.1.2 (b8e25be8, 2022-02-05)"
   sodipodi:docname="drawing.svg"
   xmlns:inkscape="http://www.inkscape.org/namespaces/inkscape"
   xmlns:sodipodi="http://sodipodi.sourceforge.net/DTD/sodipodi-0.dtd"
   xmlns="http://www.w3.org/2000/svg"
   xmlns:svg="http://www.w3.org/2000/svg">
  <g
     inkscape:label="Layer 1"
     inkscape:groupmode="layer"
     id="layer1">
    <g
       id="g1839"
       transform="matrix(0.35277777,0,0,-0.35277777,69.000068,76.45224)">
      <path
         d="m 0,0 -15.161,30.72 -33.901,4.926 24.531,23.912 -5.791,33.764 L 0,77.381 30.322,93.322 24.531,59.558 49.062,35.646 15.161,30.72 Z"
         style="fill:none;stroke:#c23643;stroke-width:0.25;stroke-linecap:butt;stroke-linejoin:miter;stroke-miterlimit:10;stroke-dasharray:none;stroke-opacity:1"
         id="path1841" />
    </g>
    <g
       id="g1843"
       transform="matrix(0.35277777,0,0,-0.35277777,87.440185,63.35106)">
      <path
         d="m 0,0 c 0,0.816 -17.702,-0.988 -18.449,-0.774 0.157,0.046 -3.401,-0.471 -3.229,-0.471 0.585,0 -11.253,-2.077 -10.927,-2.511 0.225,-0.299 -3.466,-8.419 -3.466,-8.821 0,-0.988 -10.175,-20.783 -11.163,-20.783 -0.172,0 -2.003,-3.351 -2.16,-3.306 0.093,0.027 -14.68,30.178 -14.594,30.219 0.087,0.042 -33.066,4.919 -32.987,4.974 0.079,0.054 24.204,23.559 24.274,23.625 0.069,0.067 -5.545,33.241 -5.487,33.318 0.058,0.076 29.838,-15.471 29.882,-15.386 0.045,0.085 29.811,15.802 29.841,15.894 0.031,0.09 -5.624,-32.919 -5.608,-32.822 C -24.058,23.249 0,-0.098 0,0 Z"
         style="fill:none;stroke:#c23643;stroke-width:0.255;stroke-linecap:butt;stroke-linejoin:miter;stroke-miterlimit:10;stroke-dasharray:none;stroke-opacity:1"
         id="path1845" />
    </g>
    <g
       id="g1847"
       transform="matrix(0.35277777,0,0,-0.35277777,88.572249,62.824896)">
      <path
         d="m 0,0 c 0,1.632 -17.905,0.566 -19.4,0.995 0.314,0.091 -3.003,-0.391 -2.66,-0.391 1.17,0 -9.901,-2.322 -9.249,-3.191 0.449,-0.598 -3.032,-8.934 -3.032,-9.739 0,-1.975 -10.788,-22.191 -12.764,-22.191 -0.343,0 -2.307,-3.26 -2.621,-3.169 0.187,0.053 -14.199,29.637 -14.027,29.719 0.175,0.082 -32.23,4.912 -32.072,5.021 0.158,0.109 23.877,23.205 24.016,23.338 0.138,0.133 -5.298,32.717 -5.182,32.871 0.116,0.153 29.352,-15.001 29.442,-14.83 0.089,0.169 29.299,15.663 29.36,15.846 0.06,0.181 -5.457,-32.072 -5.426,-31.88 C -23.585,22.586 0,-0.196 0,0 Z"
         style="fill:none;stroke:#c23643;stroke-width:0.26;stroke-linecap:butt;stroke-linejoin:miter;stroke-miterlimit:10;stroke-dasharray:none;stroke-opacity:1"
         id="path1849" />
    </g>
    <g
       id="g1851"
       transform="matrix(0.35277777,0,0,-0.35277777,89.704383,62.298622)">
      <path
         d="m 0,0 c 0,2.449 -18.109,2.121 -20.351,2.765 0.471,0.135 -2.606,-0.312 -2.091,-0.312 1.755,0 -8.549,-2.567 -7.571,-3.87 0.674,-0.897 -2.598,-9.449 -2.598,-10.657 0,-2.964 -11.401,-23.6 -14.364,-23.6 -0.515,0 -2.612,-3.168 -3.083,-3.033 0.28,0.081 -13.719,29.096 -13.459,29.219 0.262,0.124 -31.395,4.905 -31.158,5.068 0.237,0.164 23.55,22.853 23.758,23.052 0.208,0.199 -5.051,32.194 -4.877,32.424 0.173,0.23 28.867,-14.53 29.002,-14.274 0.134,0.254 28.786,15.523 28.878,15.799 0.091,0.271 -5.29,-31.227 -5.243,-30.938 C -23.112,21.924 0,-0.294 0,0 Z"
         style="fill:none;stroke:#c23643;stroke-width:0.265;stroke-linecap:butt;stroke-linejoin:miter;stroke-miterlimit:10;stroke-dasharray:none;stroke-opacity:1"
         id="path1853" />
    </g>
    <g
       id="g1855"
       transform="matrix(0.35277777,0,0,-0.35277777,90.836553,61.772242)">
      <path
         d="m 0,0 c 0,3.265 -18.313,3.675 -21.302,4.534 0.629,0.18 -2.208,-0.232 -1.522,-0.232 2.341,0 -7.197,-2.812 -5.892,-4.549 0.898,-1.196 -2.164,-9.965 -2.164,-11.576 0,-3.951 -12.015,-25.008 -15.966,-25.008 -0.686,0 -2.916,-3.076 -3.544,-2.896 0.373,0.107 -13.237,28.555 -12.892,28.718 0.35,0.166 -30.559,4.899 -30.244,5.116 0.318,0.219 23.224,22.499 23.501,22.765 0.277,0.266 -4.804,31.67 -4.572,31.978 0.231,0.306 28.382,-14.06 28.562,-13.719 0.178,0.339 28.274,15.384 28.397,15.752 0.121,0.361 -5.123,-30.381 -5.061,-29.997 C -22.639,21.261 0,-0.392 0,0 Z"
         style="fill:none;stroke:#c23643;stroke-width:0.27;stroke-linecap:butt;stroke-linejoin:miter;stroke-miterlimit:10;stroke-dasharray:none;stroke-opacity:1"
         id="path1857" />
    </g>
    <g
       id="g1859"
       transform="matrix(0.35277777,0,0,-0.35277777,91.968758,61.245721)">
      <path
         d="m 0,0 c 0,4.081 -18.516,5.23 -22.252,6.303 0.785,0.225 -1.811,-0.152 -0.954,-0.152 2.926,0 -5.845,-3.057 -4.214,-5.229 1.123,-1.494 -1.73,-10.48 -1.73,-12.493 0,-4.939 -12.628,-26.417 -17.567,-26.417 -0.858,0 -3.22,-2.985 -4.005,-2.759 0.467,0.134 -12.757,28.013 -12.324,28.218 0.436,0.207 -29.724,4.891 -29.33,5.163 0.397,0.273 22.896,22.146 23.243,22.478 0.347,0.332 -4.557,31.147 -4.267,31.531 0.289,0.383 27.897,-13.589 28.122,-13.162 0.223,0.422 27.762,15.244 27.916,15.703 0.151,0.452 -4.957,-29.535 -4.879,-29.054 C -22.165,20.598 0,-0.489 0,0 Z"
         style="fill:none;stroke:#c23643;stroke-width:0.275;stroke-linecap:butt;stroke-linejoin:miter;stroke-miterlimit:10;stroke-dasharray:none;stroke-opacity:1"
         id="path1861" />
    </g>
    <g
       id="g1863"
       transform="matrix(0.35277777,0,0,-0.35277777,93.101069,60.719095)">
      <path
         d="m 0,0 c 0,4.897 -18.72,6.784 -23.203,8.072 0.942,0.27 -1.414,-0.071 -0.384,-0.071 3.51,0 -4.494,-3.302 -2.537,-5.909 1.348,-1.793 -1.296,-10.996 -1.296,-13.412 0,-5.926 -13.241,-27.826 -19.168,-27.826 -1.029,0 -3.524,-2.892 -4.466,-2.622 0.56,0.161 -12.276,27.472 -11.757,27.718 0.524,0.248 -28.888,4.884 -28.415,5.211 0.476,0.328 22.569,21.792 22.985,22.191 0.416,0.399 -4.31,30.623 -3.962,31.084 0.346,0.459 27.411,-13.119 27.682,-12.606 0.267,0.507 27.25,15.104 27.434,15.656 0.181,0.542 -4.789,-28.689 -4.696,-28.112 C -21.692,19.935 0,-0.587 0,0 Z"
         style="fill:none;stroke:#c23643;stroke-width:0.279;stroke-linecap:butt;stroke-linejoin:miter;stroke-miterlimit:10;stroke-dasharray:none;stroke-opacity:1"
         id="path1865" />
    </g>
    <g
       id="g1867"
       transform="matrix(0.35277777,0,0,-0.35277777,94.23345,60.192362)">
      <path
         d="m 0,0 c 0,5.713 -18.924,8.339 -24.154,9.841 1.099,0.316 -1.016,0.009 0.185,0.009 4.096,0 -3.142,-3.547 -0.858,-6.588 1.571,-2.093 -0.862,-11.512 -0.862,-14.33 0,-6.914 -13.855,-29.235 -20.769,-29.235 -1.201,0 -3.828,-2.8 -4.928,-2.485 0.654,0.188 -11.795,26.931 -11.189,27.218 0.611,0.289 -28.053,4.877 -27.501,5.257 0.555,0.383 22.242,21.44 22.727,21.905 0.486,0.465 -4.062,30.1 -3.657,30.637 0.404,0.536 26.926,-12.648 27.241,-12.05 0.312,0.592 26.739,14.965 26.954,15.608 0.211,0.633 -4.623,-27.843 -4.514,-27.17 C -21.219,19.272 0,-0.685 0,0 Z"
         style="fill:none;stroke:#c23643;stroke-width:0.284;stroke-linecap:butt;stroke-linejoin:miter;stroke-miterlimit:10;stroke-dasharray:none;stroke-opacity:1"
         id="path1869" />
    </g>
    <g
       id="g1871"
       transform="matrix(0.35277777,0,0,-0.35277777,95.365937,59.665489)">
      <path
         d="m 0,0 c 0,6.53 -19.127,9.893 -25.105,11.61 1.256,0.361 -0.619,0.089 0.754,0.089 4.681,0 -1.791,-3.792 0.82,-7.268 1.796,-2.391 -0.428,-12.027 -0.428,-15.248 0,-7.902 -14.468,-30.643 -22.37,-30.643 -1.373,0 -4.133,-2.709 -5.389,-2.348 0.747,0.214 -11.314,26.389 -10.622,26.717 0.699,0.331 -27.217,4.87 -26.586,5.305 0.634,0.438 21.914,21.086 22.469,21.618 0.555,0.532 -3.816,29.576 -3.352,30.191 0.462,0.612 26.441,-12.178 26.801,-11.495 0.357,0.676 26.226,14.826 26.472,15.561 0.242,0.722 -4.455,-26.997 -4.331,-26.228 C -20.746,18.61 0,-0.783 0,0 Z"
         style="fill:none;stroke:#c23643;stroke-width:0.289;stroke-linecap:butt;stroke-linejoin:miter;stroke-miterlimit:10;stroke-dasharray:none;stroke-opacity:1"
         id="path1873" />
    </g>
    <g
       id="g1875"
       transform="matrix(0.35277777,0,0,-0.35277777,96.49846,59.138474)">
      <path
         d="m 0,0 c 0,7.346 -19.331,11.448 -26.056,13.379 1.414,0.406 -0.221,0.169 1.323,0.169 5.266,0 -0.439,-4.037 2.498,-7.947 2.021,-2.69 0.006,-12.542 0.006,-16.166 0,-8.89 -15.081,-32.052 -23.971,-32.052 -1.544,0 -4.436,-2.617 -5.85,-2.211 0.841,0.241 -10.833,25.848 -10.054,26.216 0.785,0.372 -26.382,4.863 -25.673,5.353 0.714,0.492 21.588,20.733 22.212,21.331 0.624,0.598 -3.569,29.052 -3.047,29.744 0.519,0.689 25.956,-11.707 26.361,-10.939 0.401,0.761 25.714,14.686 25.991,15.513 0.271,0.813 -4.289,-26.151 -4.149,-25.286 C -20.273,17.947 0,-0.881 0,0 Z"
         style="fill:none;stroke:#c23643;stroke-width:0.294;stroke-linecap:butt;stroke-linejoin:miter;stroke-miterlimit:10;stroke-dasharray:none;stroke-opacity:1"
         id="path1877" />
    </g>
    <g
       id="g1879"
       transform="matrix(0.35277777,0,0,-0.35277777,97.631088,58.611318)">
      <path
         d="m 0,0 c 0,8.162 -19.535,13.002 -27.007,15.148 1.571,0.451 0.177,0.249 1.892,0.249 5.852,0 0.913,-4.282 4.176,-8.626 2.246,-2.989 0.441,-13.058 0.441,-17.084 0,-9.878 -15.695,-33.461 -25.572,-33.461 -1.716,0 -4.741,-2.526 -6.312,-2.075 0.934,0.269 -10.352,25.307 -9.487,25.717 0.873,0.413 -25.546,4.856 -24.758,5.4 0.793,0.547 21.261,20.379 21.954,21.044 0.694,0.665 -3.322,28.529 -2.742,29.297 0.577,0.766 25.471,-11.237 25.921,-10.383 0.445,0.846 25.202,14.547 25.509,15.466 0.302,0.903 -4.121,-25.305 -3.966,-24.344 C -19.8,17.284 0,-0.979 0,0 Z"
         style="fill:none;stroke:#c23643;stroke-width:0.299;stroke-linecap:butt;stroke-linejoin:miter;stroke-miterlimit:10;stroke-dasharray:none;stroke-opacity:1"
         id="path1881" />
    </g>
    <g
       id="g1883"
       transform="matrix(0.35277777,0,0,-0.35277777,98.763787,58.084021)">
      <path
         d="m 0,0 c 0,8.978 -19.738,14.557 -27.958,16.917 1.728,0.496 0.574,0.33 2.461,0.33 6.437,0 2.265,-4.528 5.855,-9.306 2.47,-3.289 0.874,-13.574 0.874,-18.003 0,-10.865 -16.308,-34.869 -27.173,-34.869 -1.887,0 -5.045,-2.434 -6.773,-1.938 1.027,0.295 -9.871,24.766 -8.92,25.216 0.961,0.455 -24.71,4.849 -23.843,5.447 0.872,0.602 20.934,20.027 21.696,20.758 0.763,0.731 -3.075,28.005 -2.437,28.851 0.635,0.842 24.986,-10.767 25.481,-9.828 0.49,0.93 24.69,14.408 25.028,15.418 0.332,0.994 -3.955,-24.459 -3.784,-23.402 C -19.327,16.621 0,-1.077 0,0 Z"
         style="fill:none;stroke:#c23643;stroke-width:0.304;stroke-linecap:butt;stroke-linejoin:miter;stroke-miterlimit:10;stroke-dasharray:none;stroke-opacity:1"
         id="path1885" />
    </g>
    <g
       id="g1887"
       transform="matrix(0.35277777,0,0,-0.35277777,99.896627,57.556548)">
      <path
         d="m 0,0 c 0,9.794 -19.942,16.111 -28.909,18.686 1.885,0.541 0.972,0.41 3.031,0.41 7.021,0 3.616,-4.773 7.532,-9.986 2.694,-3.587 1.308,-14.089 1.308,-18.92 0,-11.854 -16.921,-36.278 -28.774,-36.278 -2.059,0 -5.349,-2.342 -7.234,-1.801 1.121,0.322 -9.39,24.224 -8.352,24.715 1.048,0.497 -23.875,4.843 -22.929,5.495 0.951,0.657 20.607,19.673 21.438,20.471 0.833,0.798 -2.828,27.482 -2.132,28.404 0.692,0.918 24.5,-10.296 25.04,-9.272 0.535,1.015 24.179,14.268 24.547,15.371 0.363,1.084 -3.787,-23.613 -3.601,-22.46 C -18.854,15.958 0,-1.175 0,0 Z"
         style="fill:none;stroke:#c23643;stroke-width:0.309;stroke-linecap:butt;stroke-linejoin:miter;stroke-miterlimit:10;stroke-dasharray:none;stroke-opacity:1"
         id="path1889" />
    </g>
    <g
       id="g1891"
       transform="matrix(0.35277777,0,0,-0.35277777,101.02954,57.028898)">
      <path
         d="m 0,0 c 0,10.611 -20.146,17.666 -29.859,20.455 2.042,0.587 1.368,0.49 3.599,0.49 7.607,0 4.968,-5.018 9.21,-10.665 2.919,-3.886 1.743,-14.605 1.743,-19.839 0,-12.841 -17.535,-37.686 -30.375,-37.686 -2.231,0 -5.654,-2.251 -7.696,-1.664 1.214,0.348 -8.909,23.682 -7.785,24.215 1.136,0.537 -23.039,4.835 -22.014,5.542 1.031,0.711 20.279,19.32 21.181,20.184 0.901,0.864 -2.582,26.958 -1.828,27.957 0.75,0.995 24.015,-9.826 24.6,-8.715 0.58,1.099 23.666,14.128 24.066,15.323 0.392,1.174 -3.621,-22.768 -3.419,-21.518 C -18.38,15.296 0,-1.273 0,0 Z"
         style="fill:none;stroke:#c23643;stroke-width:0.314;stroke-linecap:butt;stroke-linejoin:miter;stroke-miterlimit:10;stroke-dasharray:none;stroke-opacity:1"
         id="path1893" />
    </g>
    <g
       id="g1895"
       transform="matrix(0.35277777,0,0,-0.35277777,102.16262,56.501072)">
      <path
         d="m 0,0 c 0,11.427 -20.349,19.22 -30.81,22.224 2.199,0.632 1.766,0.57 4.168,0.57 8.192,0 6.32,-5.263 10.888,-11.344 3.144,-4.185 2.177,-15.12 2.177,-20.757 0,-13.829 -18.148,-39.095 -31.976,-39.095 -2.402,0 -5.958,-2.159 -8.157,-1.528 1.308,0.376 -8.428,23.142 -7.217,23.715 1.222,0.579 -22.205,4.828 -21.101,5.59 1.111,0.766 19.953,18.966 20.924,19.897 0.971,0.931 -2.335,26.435 -1.523,27.511 0.808,1.071 23.53,-9.356 24.16,-8.16 0.624,1.184 23.154,13.989 23.584,15.275 0.423,1.265 -3.454,-21.921 -3.236,-20.576 C -17.907,14.633 0,-1.37 0,0 Z"
         style="fill:none;stroke:#c23643;stroke-width:0.319;stroke-linecap:butt;stroke-linejoin:miter;stroke-miterlimit:10;stroke-dasharray:none;stroke-opacity:1"
         id="path1897" />
    </g>
    <g
       id="g1899"
       transform="matrix(0.35277777,0,0,-0.35277777,103.29582,55.97307)">
      <path
         d="m 0,0 c 0,12.243 -20.553,20.775 -31.761,23.993 2.356,0.677 2.163,0.65 4.737,0.65 8.777,0 7.672,-5.507 12.567,-12.024 3.368,-4.483 2.61,-15.635 2.61,-21.675 0,-14.816 -18.76,-40.503 -33.577,-40.503 -2.574,0 -6.262,-2.067 -8.618,-1.391 1.401,0.402 -7.947,22.6 -6.65,23.215 1.31,0.62 -21.369,4.821 -20.186,5.636 1.19,0.821 19.626,18.614 20.666,19.611 1.04,0.997 -2.088,25.911 -1.218,27.064 0.865,1.148 23.045,-8.885 23.72,-7.604 0.668,1.268 22.642,13.849 23.103,15.228 0.453,1.355 -3.287,-21.076 -3.054,-19.634 C -17.434,13.97 0,-1.468 0,0 Z"
         style="fill:none;stroke:#c23643;stroke-width:0.324;stroke-linecap:butt;stroke-linejoin:miter;stroke-miterlimit:10;stroke-dasharray:none;stroke-opacity:1"
         id="path1901" />
    </g>
    <g
       id="g1903"
       transform="matrix(0.35277777,0,0,-0.35277777,104.42915,55.444855)">
      <path
         d="m 0,0 c 0,13.059 -20.757,22.329 -32.712,25.762 2.513,0.722 2.561,0.731 5.306,0.731 9.362,0 9.024,-5.753 14.245,-12.704 3.592,-4.783 3.045,-16.151 3.045,-22.593 0,-15.805 -19.374,-41.912 -35.179,-41.912 -2.745,0 -6.565,-1.976 -9.079,-1.254 1.495,0.429 -7.466,22.059 -6.082,22.714 1.397,0.662 -20.534,4.814 -19.272,5.684 1.269,0.875 19.299,18.26 20.408,19.324 1.109,1.064 -1.841,25.388 -0.913,26.617 0.923,1.225 22.56,-8.414 23.28,-7.048 0.713,1.353 22.13,13.71 22.621,15.18 0.484,1.446 -3.12,-20.229 -2.871,-18.692 C -16.961,13.307 0,-1.566 0,0 Z"
         style="fill:none;stroke:#c23643;stroke-width:0.328;stroke-linecap:butt;stroke-linejoin:miter;stroke-miterlimit:10;stroke-dasharray:none;stroke-opacity:1"
         id="path1905" />
    </g>
    <g
       id="g1907"
       transform="matrix(0.35277777,0,0,-0.35277777,105.5627,54.91643)">
      <path
         d="m 0,0 c 0,13.875 -20.96,23.884 -33.663,27.531 2.67,0.767 2.959,0.811 5.875,0.811 9.948,0 10.376,-5.998 15.923,-13.383 3.817,-5.082 3.479,-16.667 3.479,-23.512 0,-16.792 -19.987,-43.321 -36.78,-43.321 -2.916,0 -6.869,-1.883 -9.54,-1.116 1.588,0.455 -6.985,21.517 -5.515,22.213 1.485,0.703 -19.698,4.807 -18.357,5.732 1.348,0.93 18.971,17.907 20.15,19.037 1.179,1.13 -1.594,24.864 -0.608,26.171 0.981,1.301 22.074,-7.945 22.839,-6.493 0.758,1.438 21.619,13.571 22.141,15.133 0.513,1.535 -2.953,-19.384 -2.689,-17.75 C -16.488,12.644 0,-1.664 0,0 Z"
         style="fill:none;stroke:#c23643;stroke-width:0.333;stroke-linecap:butt;stroke-linejoin:miter;stroke-miterlimit:10;stroke-dasharray:none;stroke-opacity:1"
         id="path1909" />
    </g>
    <g
       id="g1911"
       transform="matrix(0.35277777,0,0,-0.35277777,106.69635,54.915759)">
      <path
         d="m 0,0 c 0,14.692 -21.164,25.438 -34.614,29.3 2.828,0.812 3.356,0.891 6.445,0.891 10.532,0 11.727,-6.243 17.601,-14.063 4.041,-5.38 3.912,-17.182 3.912,-24.429 0,-17.78 -20.6,-44.73 -38.38,-44.73 -3.088,0 -7.174,-1.792 -10.002,-0.98 1.682,0.483 -6.504,20.977 -4.947,21.714 1.572,0.744 -18.863,4.8 -17.443,5.779 1.427,0.984 18.644,17.554 19.892,18.75 1.248,1.197 -1.347,24.341 -0.303,25.724 1.038,1.377 21.589,-7.474 22.399,-5.937 0.802,1.522 21.106,13.431 21.659,15.085 0.544,1.626 -2.786,-18.537 -2.506,-16.807 C -16.015,11.982 0,-1.762 0,0 Z"
         style="fill:none;stroke:#c23643;stroke-width:0.338;stroke-linecap:butt;stroke-linejoin:miter;stroke-miterlimit:10;stroke-dasharray:none;stroke-opacity:1"
         id="path1913" />
    </g>
    <g
       id="g1915"
       transform="matrix(0.35277777,0,0,-0.35277777,107.83025,55.010163)">
      <path
         d="m 0,0 c 0,15.508 -21.368,26.993 -35.565,31.07 2.985,0.857 3.754,0.97 7.014,0.97 11.117,0 13.079,-6.488 19.279,-14.742 4.266,-5.679 4.346,-17.697 4.346,-25.347 0,-18.768 -21.213,-46.139 -39.981,-46.139 -3.26,0 -7.478,-1.7 -10.463,-0.843 1.775,0.51 -6.023,20.435 -4.38,21.213 1.659,0.786 -18.027,4.793 -16.529,5.827 1.507,1.039 18.318,17.2 19.635,18.463 1.318,1.263 -1.1,23.817 0.002,25.277 1.096,1.454 21.104,-7.003 21.959,-5.381 0.847,1.607 20.594,13.292 21.178,15.038 C -12.931,27.122 -16.124,7.714 -15.829,9.54 -15.542,11.319 0,-1.86 0,0 Z"
         style="fill:none;stroke:#c23643;stroke-width:0.343;stroke-linecap:butt;stroke-linejoin:miter;stroke-miterlimit:10;stroke-dasharray:none;stroke-opacity:1"
         id="path1917" />
    </g>
    <g
       id="g1919"
       transform="matrix(0.35277777,0,0,-0.35277777,108.96432,55.104001)">
      <path
         d="m 0,0 c 0,16.324 -21.571,28.547 -36.516,32.839 3.142,0.902 4.151,1.05 7.583,1.05 11.703,0 14.431,-6.733 20.957,-15.421 4.491,-5.978 4.781,-18.213 4.781,-26.266 0,-19.755 -21.827,-47.547 -41.583,-47.547 -3.431,0 -7.782,-1.608 -10.924,-0.706 1.869,0.536 -5.542,19.893 -3.813,20.712 1.747,0.828 -17.191,4.786 -15.614,5.874 1.586,1.094 17.991,16.848 19.377,18.177 1.387,1.33 -0.853,23.294 0.307,24.831 1.154,1.53 20.619,-6.533 21.519,-4.825 0.891,1.691 20.082,13.152 20.696,14.989 0.605,1.807 -2.452,-16.845 -2.141,-14.923 C -15.068,10.656 0,-1.958 0,0 Z"
         style="fill:none;stroke:#c23643;stroke-width:0.348;stroke-linecap:butt;stroke-linejoin:miter;stroke-miterlimit:10;stroke-dasharray:none;stroke-opacity:1"
         id="path1921" />
    </g>
    <g
       id="g1923"
       transform="matrix(0.35277777,0,0,-0.35277777,110.09868,55.197276)">
      <path
         d="m 0,0 c 0,17.14 -21.775,30.102 -37.466,34.608 3.298,0.947 4.548,1.131 8.151,1.131 12.288,0 15.783,-6.979 22.635,-16.101 4.715,-6.278 5.215,-18.729 5.215,-27.184 0,-20.744 -22.44,-48.956 -43.183,-48.956 -3.603,0 -8.087,-1.517 -11.386,-0.57 1.962,0.564 -5.061,19.353 -3.245,20.213 1.834,0.868 -16.356,4.779 -14.7,5.921 1.665,1.149 17.663,16.494 19.119,17.89 1.457,1.396 -0.606,22.77 0.611,24.384 1.212,1.607 20.135,-6.063 21.08,-4.269 0.935,1.775 19.57,13.012 20.215,14.942 0.634,1.897 -2.285,-16 -1.959,-13.982 C -14.595,9.993 0,-2.056 0,0 Z"
         style="fill:none;stroke:#c23643;stroke-width:0.353;stroke-linecap:butt;stroke-linejoin:miter;stroke-miterlimit:10;stroke-dasharray:none;stroke-opacity:1"
         id="path1925" />
    </g>
    <g
       id="g1927"
       transform="matrix(0.35277777,0,0,-0.35277777,111.18647,55.289951)">
      <path
         d="m 0,0 c 0,17.956 -21.979,31.657 -38.417,36.377 3.455,0.992 4.946,1.211 8.72,1.211 12.873,0 17.135,-7.224 24.314,-16.781 4.939,-6.576 5.648,-19.244 5.648,-28.102 0,-21.731 -23.053,-50.364 -44.784,-50.364 -3.775,0 -8.391,-1.425 -11.846,-0.433 2.054,0.59 -4.581,18.811 -2.679,19.712 1.921,0.91 -15.52,4.772 -13.785,5.969 1.744,1.203 17.336,16.141 18.861,17.603 1.526,1.463 -0.359,22.247 0.916,23.937 1.27,1.684 19.65,-5.592 20.64,-3.713 0.98,1.86 19.058,12.873 19.733,14.895 0.665,1.987 -2.118,-15.154 -1.776,-13.04 C -14.122,9.331 0,-2.153 0,0 Z"
         style="fill:none;stroke:#c23643;stroke-width:0.358;stroke-linecap:butt;stroke-linejoin:miter;stroke-miterlimit:10;stroke-dasharray:none;stroke-opacity:1"
         id="path1929" />
    </g>
    <g
       id="g1931"
       transform="matrix(0.35277777,0,0,-0.35277777,112.01613,55.381955)">
      <path
         d="m 0,0 c 0,18.773 -22.182,33.211 -39.368,38.146 3.613,1.037 5.343,1.291 9.289,1.291 13.459,0 18.487,-7.468 25.992,-17.46 5.164,-6.875 6.083,-19.76 6.083,-29.02 0,-22.719 -23.667,-51.773 -46.386,-51.773 -3.946,0 -8.695,-1.333 -12.307,-0.296 2.148,0.617 -4.1,18.27 -2.111,19.212 2.008,0.951 -14.685,4.765 -12.871,6.016 1.824,1.258 17.009,15.787 18.603,17.316 1.596,1.529 -0.112,21.723 1.221,23.491 1.328,1.76 19.164,-5.122 20.199,-3.158 1.025,1.945 18.546,12.734 19.253,14.847 C -11.708,20.69 -14.354,4.304 -13.997,6.515 -13.649,8.668 0,-2.251 0,0 Z"
         style="fill:none;stroke:#c23643;stroke-width:0.363;stroke-linecap:butt;stroke-linejoin:miter;stroke-miterlimit:10;stroke-dasharray:none;stroke-opacity:1"
         id="path1933" />
    </g>
    <g
       id="g1935"
       transform="matrix(0.35277777,0,0,-0.35277777,112.84615,55.473219)">
      <path
         d="m 0,0 c 0,19.589 -22.386,34.766 -40.319,39.915 3.77,1.082 5.741,1.371 9.859,1.371 14.043,0 19.838,-7.713 27.669,-18.139 5.389,-7.174 6.517,-20.276 6.517,-29.939 0,-23.706 -24.28,-53.181 -47.986,-53.181 -4.118,0 -9,-1.242 -12.769,-0.159 2.241,0.643 -3.619,17.728 -1.544,18.711 2.096,0.993 -13.849,4.758 -11.957,6.063 1.904,1.313 16.683,15.435 18.346,17.03 1.665,1.596 0.135,21.199 1.526,23.044 1.385,1.837 18.679,-4.651 19.759,-2.602 1.07,2.029 18.034,12.594 18.772,14.8 0.725,2.168 -1.785,-13.463 -1.412,-11.156 C -13.176,8.005 0,-2.349 0,0 Z"
         style="fill:none;stroke:#c23643;stroke-width:0.368;stroke-linecap:butt;stroke-linejoin:miter;stroke-miterlimit:10;stroke-dasharray:none;stroke-opacity:1"
         id="path1937" />
    </g>
    <g
       id="g1939"
       transform="matrix(0.35277777,0,0,-0.35277777,113.67651,55.563706)">
      <path
         d="m 0,0 c 0,20.405 -22.589,36.32 -41.27,41.684 3.927,1.128 6.138,1.451 10.428,1.451 14.628,0 21.19,-7.958 29.347,-18.819 5.614,-7.473 6.951,-20.79 6.951,-30.856 0,-24.695 -24.893,-54.59 -49.587,-54.59 -4.29,0 -9.303,-1.15 -13.23,-0.023 2.335,0.671 -3.138,17.188 -0.976,18.211 2.183,1.034 -13.014,4.751 -11.043,6.111 1.983,1.368 16.355,15.081 18.088,16.743 1.734,1.662 0.382,20.676 1.831,22.597 1.443,1.913 18.194,-4.181 19.319,-2.046 1.114,2.114 17.522,12.455 18.29,14.752 0.755,2.259 -1.617,-12.616 -1.229,-10.213 C -12.703,7.342 0,-2.447 0,0 Z"
         style="fill:none;stroke:#c23643;stroke-width:0.373;stroke-linecap:butt;stroke-linejoin:miter;stroke-miterlimit:10;stroke-dasharray:none;stroke-opacity:1"
         id="path1941" />
    </g>
    <g
       id="g1943"
       transform="matrix(0.35277777,0,0,-0.35277777,114.50734,55.653347)">
      <path
         d="m 0,0 c 0,21.221 -22.793,37.875 -42.221,43.453 4.084,1.173 6.536,1.532 10.997,1.532 15.213,0 22.542,-8.204 31.026,-19.499 5.837,-7.772 7.385,-21.306 7.385,-31.775 0,-25.682 -25.507,-55.998 -51.189,-55.998 -4.461,0 -9.607,-1.059 -13.691,0.114 2.428,0.697 -2.657,16.646 -0.409,17.711 2.271,1.075 -12.178,4.744 -10.128,6.158 2.062,1.422 16.028,14.728 17.83,16.456 1.804,1.729 0.629,20.152 2.136,22.151 1.501,1.989 17.709,-3.711 18.879,-1.491 1.158,2.199 17.01,12.316 17.809,14.705 0.785,2.348 -1.451,-11.771 -1.047,-9.272 C -12.229,6.679 0,-2.545 0,0 Z"
         style="fill:none;stroke:#c23643;stroke-width:0.377;stroke-linecap:butt;stroke-linejoin:miter;stroke-miterlimit:10;stroke-dasharray:none;stroke-opacity:1"
         id="path1945" />
    </g>
    <g
       id="g1947"
       transform="matrix(0.35277777,0,0,-0.35277777,115.33866,55.742071)">
      <path
         d="m 0,0 c 0,22.037 -22.997,39.429 -43.172,45.222 4.242,1.218 6.934,1.612 11.566,1.612 15.799,0 23.894,-8.449 32.704,-20.178 6.062,-8.071 7.819,-21.822 7.819,-32.693 0,-26.67 -26.12,-57.407 -52.79,-57.407 -4.632,0 -9.911,-0.967 -14.152,0.251 2.522,0.724 -2.176,16.104 0.159,17.21 2.357,1.117 -11.343,4.737 -9.214,6.206 2.141,1.476 15.701,14.374 17.573,16.169 1.872,1.795 0.875,19.629 2.44,21.704 1.558,2.066 17.224,-3.24 18.439,-0.935 1.203,2.284 16.498,12.177 17.327,14.657 0.816,2.439 -1.283,-10.924 -0.864,-8.329 C -11.756,6.016 0,-2.643 0,0 Z"
         style="fill:none;stroke:#c23643;stroke-width:0.382;stroke-linecap:butt;stroke-linejoin:miter;stroke-miterlimit:10;stroke-dasharray:none;stroke-opacity:1"
         id="path1949" />
    </g>
    <g
       id="g1951"
       transform="matrix(0.35277777,0,0,-0.35277777,116.17055,55.829771)">
      <path
         d="m 0,0 c 0,22.854 -23.2,40.984 -44.122,46.991 4.398,1.263 7.33,1.692 12.134,1.692 16.384,0 25.246,-8.694 34.382,-20.857 6.287,-8.37 8.253,-22.338 8.253,-33.612 0,-27.657 -26.733,-58.816 -54.391,-58.816 -4.803,0 -10.215,-0.874 -14.613,0.389 2.615,0.751 -1.695,15.563 0.726,16.71 2.445,1.158 -10.507,4.73 -8.299,6.252 2.22,1.532 15.374,14.022 17.315,15.883 1.942,1.862 1.122,19.105 2.745,21.257 1.616,2.143 16.739,-2.769 17.998,-0.378 1.248,2.367 15.986,12.036 16.847,14.609 0.845,2.529 -1.117,-10.079 -0.682,-7.388 C -11.283,5.354 0,-2.741 0,0 Z"
         style="fill:none;stroke:#c23643;stroke-width:0.387;stroke-linecap:butt;stroke-linejoin:miter;stroke-miterlimit:10;stroke-dasharray:none;stroke-opacity:1"
         id="path1953" />
    </g>
    <g
       id="g1955"
       transform="matrix(0.35277777,0,0,-0.35277777,117.00307,55.916413)">
      <path
         d="m 0,0 c 0,23.67 -23.404,42.538 -45.073,48.76 4.555,1.308 7.728,1.772 12.703,1.772 16.969,0 26.598,-8.939 36.06,-21.537 6.512,-8.668 8.688,-22.853 8.688,-34.529 0,-28.646 -27.347,-60.225 -55.992,-60.225 -4.976,0 -10.52,-0.783 -15.075,0.525 2.708,0.778 -1.214,15.022 1.293,16.21 2.533,1.199 -9.671,4.723 -7.385,6.3 2.3,1.586 15.047,13.668 17.058,15.596 2.011,1.928 1.369,18.582 3.05,20.81 1.674,2.22 16.253,-2.299 17.558,0.178 1.292,2.452 15.474,11.897 16.365,14.562 0.876,2.619 -0.949,-9.233 -0.499,-6.446 C -10.81,4.691 0,-2.839 0,0 Z"
         style="fill:none;stroke:#c23643;stroke-width:0.392;stroke-linecap:butt;stroke-linejoin:miter;stroke-miterlimit:10;stroke-dasharray:none;stroke-opacity:1"
         id="path1957" />
    </g>
    <g
       id="g1959"
       transform="matrix(0.35277777,0,0,-0.35277777,117.83636,56.001856)">
      <path
         d="m 0,0 c 0,24.486 -23.608,44.093 -46.024,50.529 4.712,1.353 8.125,1.852 13.272,1.852 17.555,0 27.95,-9.184 37.739,-22.216 6.735,-8.968 9.121,-23.369 9.121,-35.448 0,-29.633 -27.96,-61.633 -57.593,-61.633 -5.147,0 -10.824,-0.691 -15.536,0.662 2.802,0.805 -0.733,14.481 1.861,15.709 2.62,1.241 -8.836,4.716 -6.471,6.348 2.379,1.641 14.72,13.315 16.8,15.309 2.081,1.994 1.616,18.058 3.355,20.364 1.731,2.296 15.768,-1.829 17.118,0.733 1.337,2.537 14.962,11.758 15.884,14.514 0.906,2.71 -0.783,-8.387 -0.317,-5.503 C -10.337,4.028 0,-2.937 0,0 Z"
         style="fill:none;stroke:#c23643;stroke-width:0.397;stroke-linecap:butt;stroke-linejoin:miter;stroke-miterlimit:10;stroke-dasharray:none;stroke-opacity:1"
         id="path1961" />
    </g>
    <g
       id="g1963"
       transform="matrix(0.35277777,0,0,-0.35277777,118.67051,56.086064)">
      <path
         d="m 0,0 c 0,25.302 -23.811,45.647 -46.975,52.298 4.869,1.399 8.523,1.933 13.842,1.933 18.139,0 29.301,-9.43 39.416,-22.896 6.96,-9.267 9.555,-23.884 9.555,-36.366 0,-30.621 -28.573,-63.042 -59.194,-63.042 -5.318,0 -11.128,-0.599 -15.997,0.799 2.895,0.831 -0.252,13.939 2.428,15.209 2.707,1.282 -8.001,4.709 -5.556,6.395 2.458,1.695 14.393,12.961 16.542,15.022 2.15,2.061 1.863,17.535 3.66,19.917 1.789,2.373 15.283,-1.358 16.678,1.289 1.381,2.621 14.45,11.618 15.402,14.467 0.937,2.8 -0.615,-7.541 -0.134,-4.562 C -9.864,3.365 0,-3.034 0,0 Z"
         style="fill:none;stroke:#c23643;stroke-width:0.402;stroke-linecap:butt;stroke-linejoin:miter;stroke-miterlimit:10;stroke-dasharray:none;stroke-opacity:1"
         id="path1965" />
    </g>
    <g
       id="g1967"
       transform="matrix(0.35277777,0,0,-0.35277777,119.50571,56.168932)">
      <path
         d="m 0,0 c 0,26.118 -24.015,47.202 -47.926,54.067 5.027,1.444 8.921,2.013 14.411,2.013 18.724,0 30.653,-9.674 41.094,-23.576 7.185,-9.565 9.989,-24.399 9.989,-37.283 0,-31.609 -29.186,-64.451 -60.794,-64.451 -5.491,0 -11.433,-0.508 -16.459,0.936 2.989,0.858 0.229,13.398 2.996,14.708 2.794,1.324 -7.166,4.702 -4.642,6.443 2.537,1.75 14.066,12.608 16.284,14.735 2.219,2.127 2.11,17.011 3.965,19.47 1.847,2.449 14.798,-0.888 16.238,1.845 1.426,2.706 13.938,11.479 14.921,14.419 0.966,2.891 -0.449,-6.695 0.048,-3.619 C -9.391,2.703 0,-3.132 0,0 Z"
         style="fill:none;stroke:#c23643;stroke-width:0.407;stroke-linecap:butt;stroke-linejoin:miter;stroke-miterlimit:10;stroke-dasharray:none;stroke-opacity:1"
         id="path1969" />
    </g>
    <g
       id="g1971"
       transform="matrix(0.35277777,0,0,-0.35277777,120.34221,56.250353)">
      <path
         d="m 0,0 c 0,26.935 -24.219,48.756 -48.877,55.836 5.184,1.489 9.318,2.093 14.98,2.093 19.309,0 32.005,-9.919 42.772,-24.255 7.41,-9.864 10.424,-24.915 10.424,-38.202 0,-32.596 -29.8,-65.859 -62.396,-65.859 -5.662,0 -11.737,-0.416 -16.92,1.072 3.082,0.885 0.71,12.857 3.563,14.208 2.882,1.365 -6.33,4.695 -3.727,6.49 2.616,1.805 13.738,12.255 16.026,14.449 2.289,2.194 2.357,16.488 4.27,19.024 1.904,2.525 14.313,-0.418 15.798,2.4 1.47,2.791 13.425,11.34 14.439,14.372 C -8.651,4.609 -9.93,-4.221 -9.417,-1.05 -8.918,2.04 0,-3.23 0,0 Z"
         style="fill:none;stroke:#c23643;stroke-width:0.412;stroke-linecap:butt;stroke-linejoin:miter;stroke-miterlimit:10;stroke-dasharray:none;stroke-opacity:1"
         id="path1973" />
    </g>
    <g
       id="g1975"
       transform="matrix(0.35277777,0,0,-0.35277777,121.3187,56.330363)">
      <path
         d="m 0,0 c 0,27.751 -24.422,50.311 -49.828,57.605 5.341,1.534 9.716,2.173 15.549,2.173 19.895,0 33.357,-10.164 44.451,-24.934 7.634,-10.164 10.857,-25.431 10.857,-39.12 0,-33.585 -30.413,-67.268 -63.997,-67.268 -5.833,0 -12.041,-0.324 -17.381,1.209 3.176,0.912 1.191,12.315 4.131,13.708 2.969,1.406 -5.495,4.688 -2.814,6.537 2.696,1.86 13.412,11.902 15.769,14.162 2.358,2.26 2.604,15.964 4.575,18.577 1.962,2.602 13.827,0.053 15.357,2.956 1.515,2.875 12.914,11.2 13.959,14.324 1.027,3.072 -0.115,-5.003 0.413,-1.735 C -8.444,1.377 0,-3.328 0,0 Z"
         style="fill:none;stroke:#c23643;stroke-width:0.417;stroke-linecap:butt;stroke-linejoin:miter;stroke-miterlimit:10;stroke-dasharray:none;stroke-opacity:1"
         id="path1977" />
    </g>
    <g
       id="g1979"
       transform="matrix(0.35277777,0,0,-0.35277777,122.40685,56.408891)">
      <path
         d="m 0,0 c 0,28.567 -24.626,51.865 -50.778,59.375 5.497,1.578 10.112,2.252 16.117,2.252 20.48,0 34.708,-10.409 46.129,-25.614 7.858,-10.462 11.291,-25.946 11.291,-40.038 0,-34.572 -31.026,-68.676 -65.598,-68.676 -6.005,0 -12.344,-0.233 -17.842,1.346 3.269,0.938 1.672,11.774 4.698,13.207 3.057,1.448 -4.659,4.681 -1.899,6.585 2.776,1.914 13.085,11.549 15.511,13.875 2.428,2.327 2.851,15.441 4.88,18.131 2.02,2.678 13.342,0.523 14.917,3.512 1.56,2.959 12.402,11.06 13.477,14.276 1.057,3.162 0.052,-4.157 0.596,-0.793 C -7.971,0.714 0,-3.426 0,0 Z"
         style="fill:none;stroke:#c23643;stroke-width:0.422;stroke-linecap:butt;stroke-linejoin:miter;stroke-miterlimit:10;stroke-dasharray:none;stroke-opacity:1"
         id="path1981" />
    </g>
    <g
       id="g1983"
       transform="matrix(0.35277777,0,0,-0.35277777,123.49495,56.486044)">
      <path
         d="m 0,0 c 0,29.383 -24.83,53.42 -51.729,61.144 5.654,1.623 10.51,2.333 16.686,2.333 21.065,0 36.06,-10.655 47.807,-26.294 8.083,-10.761 11.726,-26.461 11.726,-40.956 0,-35.56 -31.64,-70.085 -67.199,-70.085 -6.177,0 -12.649,-0.141 -18.304,1.482 3.362,0.966 2.153,11.233 5.266,12.708 3.143,1.489 -3.824,4.673 -0.985,6.632 2.855,1.969 12.758,11.195 15.253,13.588 2.497,2.393 3.098,14.917 5.185,17.684 2.077,2.755 12.857,0.993 14.477,4.068 1.604,3.044 11.89,10.921 12.996,14.228 1.087,3.252 0.219,-3.311 0.778,0.149 C -7.498,0.051 0,-3.524 0,0 Z"
         style="fill:none;stroke:#c23643;stroke-width:0.426;stroke-linecap:butt;stroke-linejoin:miter;stroke-miterlimit:10;stroke-dasharray:none;stroke-opacity:1"
         id="path1985" />
    </g>
    <g
       id="g1987"
       transform="matrix(0.35277777,0,0,-0.35277777,124.5831,56.562173)">
      <path
         d="m 0,0 c 0,30.199 -25.033,54.974 -52.68,62.913 5.812,1.668 10.908,2.413 17.256,2.413 21.65,0 37.411,-10.9 49.485,-26.973 8.307,-11.06 12.159,-26.977 12.159,-41.875 0,-36.547 -32.252,-71.493 -68.8,-71.493 -6.348,0 -12.953,-0.05 -18.765,1.619 3.456,0.992 2.634,10.692 5.833,12.207 3.231,1.53 -2.988,4.667 -0.07,6.679 2.934,2.024 12.43,10.843 14.995,13.302 2.567,2.46 3.345,14.394 5.49,17.237 2.135,2.832 12.372,1.464 14.037,4.624 1.649,3.128 11.378,10.781 12.514,14.181 1.118,3.342 0.386,-2.465 0.961,1.091 C -7.025,-0.612 0,-3.622 0,0 Z"
         style="fill:none;stroke:#c23643;stroke-width:0.431;stroke-linecap:butt;stroke-linejoin:miter;stroke-miterlimit:10;stroke-dasharray:none;stroke-opacity:1"
         id="path1989" />
    </g>
    <g
       id="g1991"
       transform="matrix(0.35277777,0,0,-0.35277777,125.67124,56.637773)">
      <path
         d="m 0,0 c 0,31.016 -25.237,56.529 -53.631,64.682 5.969,1.714 11.305,2.493 17.825,2.493 22.235,0 38.763,-11.145 51.163,-27.652 C 23.889,28.164 27.95,12.03 27.95,-3.27 c 0,-37.535 -32.865,-72.902 -70.401,-72.902 -6.519,0 -13.257,0.042 -19.226,1.756 3.549,1.019 3.115,10.15 6.401,11.706 3.318,1.572 -2.153,4.66 0.844,6.727 3.013,2.079 12.103,10.489 14.737,13.014 2.636,2.527 3.592,13.871 5.795,16.791 2.193,2.908 11.887,1.935 13.597,5.18 1.693,3.213 10.865,10.642 12.033,14.134 1.148,3.432 0.553,-1.62 1.143,2.032 C -6.552,-1.274 0,-3.72 0,0 Z"
         style="fill:none;stroke:#c23643;stroke-width:0.436;stroke-linecap:butt;stroke-linejoin:miter;stroke-miterlimit:10;stroke-dasharray:none;stroke-opacity:1"
         id="path1993" />
    </g>
    <g
       id="g1995"
       transform="matrix(0.35277777,0,0,-0.35277777,126.75942,56.713374)">
      <path
         d="m 0,0 c 0,31.832 -25.441,58.083 -54.582,66.451 6.126,1.759 11.703,2.573 18.394,2.573 22.82,0 40.115,-11.39 52.841,-28.332 8.757,-11.658 13.028,-28.008 13.028,-43.711 0,-38.523 -33.479,-74.31 -72.003,-74.31 -6.691,0 -13.561,0.134 -19.687,1.893 3.643,1.046 3.596,9.609 6.968,11.206 3.406,1.613 -1.317,4.653 1.758,6.774 3.093,2.133 11.777,10.136 14.48,12.728 2.705,2.593 3.839,13.346 6.1,16.344 2.25,2.984 11.401,2.405 13.156,5.735 1.738,3.298 10.354,10.503 11.552,14.086 1.178,3.523 0.72,-0.773 1.326,2.975 C -6.079,-1.937 0,-3.818 0,0 Z"
         style="fill:none;stroke:#c23643;stroke-width:0.441;stroke-linecap:butt;stroke-linejoin:miter;stroke-miterlimit:10;stroke-dasharray:none;stroke-opacity:1"
         id="path1997" />
    </g>
    <g
       id="g1999"
       transform="matrix(0.35277777,0,0,-0.35277777,127.84753,56.788974)">
      <path
         d="m 0,0 c 0,32.648 -25.644,59.638 -55.533,68.22 6.283,1.804 12.1,2.653 18.963,2.653 23.406,0 41.467,-11.635 54.519,-29.011 8.981,-11.957 13.462,-28.524 13.462,-44.629 0,-39.511 -34.092,-75.72 -73.603,-75.72 -6.863,0 -13.866,0.226 -20.149,2.03 3.736,1.073 4.077,9.068 7.535,10.706 3.493,1.655 -0.481,4.646 2.673,6.822 3.172,2.187 11.45,9.782 14.222,12.441 2.775,2.659 4.086,12.823 6.405,15.897 2.308,3.061 10.916,2.875 12.716,6.291 1.783,3.382 9.842,10.363 11.071,14.039 1.208,3.613 0.887,0.072 1.508,3.917 C -5.606,-2.6 0,-3.915 0,0 Z"
         style="fill:none;stroke:#c23643;stroke-width:0.446;stroke-linecap:butt;stroke-linejoin:miter;stroke-miterlimit:10;stroke-dasharray:none;stroke-opacity:1"
         id="path2001" />
    </g>
    <g
       id="g2003"
       transform="matrix(0.35277777,0,0,-0.35277777,128.93567,56.864574)">
      <path
         d="m 0,0 c 0,33.464 -25.848,61.192 -56.484,69.989 6.44,1.849 12.498,2.734 19.532,2.734 23.991,0 42.819,-11.88 56.198,-29.691 9.205,-12.256 13.895,-29.04 13.895,-45.547 0,-40.499 -34.705,-77.129 -75.204,-77.129 -7.034,0 -14.17,0.318 -20.61,2.167 3.83,1.1 4.558,8.526 8.103,10.205 3.58,1.696 0.354,4.639 3.587,6.869 3.251,2.243 11.122,9.43 13.965,12.155 2.843,2.726 4.332,12.299 6.709,15.45 2.366,3.138 10.431,3.346 12.276,6.847 1.827,3.467 9.33,10.224 10.59,13.991 1.238,3.704 1.053,0.919 1.69,4.859 C -5.132,-3.263 0,-4.013 0,0 Z"
         style="fill:none;stroke:#c23643;stroke-width:0.451;stroke-linecap:butt;stroke-linejoin:miter;stroke-miterlimit:10;stroke-dasharray:none;stroke-opacity:1"
         id="path2005" />
    </g>
    <g
       id="g2007"
       transform="matrix(0.35277777,0,0,-0.35277777,130.02381,56.940175)">
      <path
         d="m 0,0 c 0,34.28 -26.052,62.747 -57.435,71.758 6.598,1.894 12.895,2.814 20.101,2.814 24.576,0 44.171,-12.125 57.876,-30.371 9.43,-12.554 14.33,-29.554 14.33,-46.465 0,-41.486 -35.319,-78.537 -76.806,-78.537 -7.206,0 -14.473,0.41 -21.071,2.304 3.923,1.126 5.039,7.985 8.67,9.705 3.668,1.737 1.19,4.632 4.502,6.916 3.33,2.297 10.795,9.076 13.707,11.868 2.913,2.792 4.579,11.776 7.014,15.004 2.423,3.214 9.946,3.816 11.836,7.402 1.871,3.552 8.818,10.085 10.108,13.944 1.269,3.794 1.221,1.764 1.873,5.801 C -4.659,-3.925 0,-4.111 0,0 Z"
         style="fill:none;stroke:#c23643;stroke-width:0.456;stroke-linecap:butt;stroke-linejoin:miter;stroke-miterlimit:10;stroke-dasharray:none;stroke-opacity:1"
         id="path2009" />
    </g>
    <g
       id="g2011"
       transform="matrix(0.35277777,0,0,-0.35277777,131.11196,57.015775)">
      <path
         d="m 0,0 c 0,35.097 -26.255,64.301 -58.385,73.527 6.754,1.939 13.292,2.894 20.67,2.894 25.161,0 45.522,-12.37 59.553,-31.05 9.655,-12.853 14.764,-30.07 14.764,-47.383 0,-42.475 -35.932,-79.946 -78.406,-79.946 -7.378,0 -14.778,0.501 -21.533,2.441 4.017,1.153 5.52,7.443 9.238,9.204 3.755,1.779 2.025,4.625 5.416,6.964 3.409,2.352 10.468,8.723 13.449,11.581 2.982,2.859 4.826,11.252 7.318,14.557 2.482,3.291 9.462,4.287 11.397,7.959 1.916,3.636 8.305,9.944 9.627,13.895 1.298,3.885 1.387,2.611 2.055,6.743 C -4.186,-4.588 0,-4.209 0,0 Z"
         style="fill:none;stroke:#c23643;stroke-width:0.461;stroke-linecap:butt;stroke-linejoin:miter;stroke-miterlimit:10;stroke-dasharray:none;stroke-opacity:1"
         id="path2013" />
    </g>
    <g
       id="g2015"
       transform="matrix(0.35277777,0,0,-0.35277777,132.20013,57.091375)">
      <path
         d="m 0,0 c 0,35.913 -26.459,65.856 -59.336,75.296 6.911,1.985 13.69,2.974 21.239,2.974 25.746,0 46.874,-12.615 61.231,-31.729 9.879,-13.153 15.198,-30.586 15.198,-48.302 0,-43.462 -36.545,-81.354 -80.007,-81.354 -7.549,0 -15.082,0.593 -21.994,2.577 4.11,1.18 6.001,6.903 9.805,8.705 3.843,1.819 2.861,4.617 6.33,7.011 3.489,2.406 10.142,8.369 13.192,11.293 3.052,2.926 5.073,10.73 7.623,14.111 2.54,3.368 8.977,4.757 10.956,8.515 1.961,3.72 7.794,9.805 9.146,13.848 1.329,3.975 1.555,3.456 2.238,7.685 C -3.713,-5.251 0,-4.307 0,0 Z"
         style="fill:none;stroke:#c23643;stroke-width:0.466;stroke-linecap:butt;stroke-linejoin:miter;stroke-miterlimit:10;stroke-dasharray:none;stroke-opacity:1"
         id="path2017" />
    </g>
    <g
       id="g2019"
       transform="matrix(0.35277777,0,0,-0.35277777,133.28824,57.16694)">
      <path
         d="m 0,0 c 0,36.729 -26.662,67.41 -60.287,77.065 7.068,2.03 14.087,3.054 21.808,3.054 26.331,0 48.226,-12.86 62.91,-32.409 10.103,-13.451 15.632,-31.101 15.632,-49.219 0,-44.45 -37.159,-82.763 -81.609,-82.763 -7.72,0 -15.386,0.684 -22.455,2.714 4.204,1.207 6.482,6.361 10.373,8.204 3.929,1.861 3.696,4.611 7.244,7.059 3.569,2.461 9.814,8.016 12.934,11.006 3.121,2.993 5.32,10.206 7.928,13.665 2.597,3.443 8.491,5.227 10.516,9.07 2.005,3.805 7.282,9.666 8.665,13.801 1.359,4.064 1.721,4.302 2.42,8.626 C -3.24,-5.914 0,-4.405 0,0 Z"
         style="fill:none;stroke:#c23643;stroke-width:0.471;stroke-linecap:butt;stroke-linejoin:miter;stroke-miterlimit:10;stroke-dasharray:none;stroke-opacity:1"
         id="path2021" />
    </g>
    <g
       id="g2023"
       transform="matrix(0.35277777,0,0,-0.35277777,134.37638,57.24254)">
      <path
         d="m 0,0 c 0,37.545 -26.866,68.965 -61.238,78.834 7.225,2.075 14.485,3.135 22.377,3.135 26.916,0 49.578,-13.106 64.588,-33.089 10.328,-13.75 16.066,-31.617 16.066,-50.138 0,-45.437 -37.772,-84.171 -83.21,-84.171 -7.892,0 -15.69,0.776 -22.916,2.851 4.297,1.233 6.963,5.82 10.94,7.703 4.017,1.903 4.532,4.604 8.159,7.106 3.648,2.516 9.487,7.663 12.676,10.72 3.191,3.059 5.567,9.683 8.233,13.218 2.655,3.52 8.006,5.698 10.076,9.626 2.05,3.89 6.77,9.526 8.183,13.753 1.39,4.155 1.889,5.148 2.603,9.569 C -2.767,-6.577 0,-4.503 0,0 Z"
         style="fill:none;stroke:#c23643;stroke-width:0.475;stroke-linecap:butt;stroke-linejoin:miter;stroke-miterlimit:10;stroke-dasharray:none;stroke-opacity:1"
         id="path2025" />
    </g>
    <g
       id="g2027"
       transform="matrix(0.35277777,0,0,-0.35277777,135.46453,57.318141)">
      <path
         d="m 0,0 c 0,38.361 -27.07,70.519 -62.189,80.603 7.383,2.12 14.882,3.215 22.946,3.215 27.502,0 50.93,-13.351 66.266,-33.768 10.553,-14.049 16.5,-32.132 16.5,-51.056 0,-46.426 -38.385,-85.58 -84.81,-85.58 -8.064,0 -15.995,0.868 -23.378,2.987 4.39,1.261 7.444,5.279 11.508,7.204 4.104,1.944 5.367,4.597 9.073,7.153 3.727,2.571 9.16,7.31 12.418,10.433 3.26,3.126 5.814,9.159 8.538,12.771 2.713,3.597 7.521,6.168 9.636,10.182 2.094,3.974 6.258,9.387 7.702,13.706 1.419,4.245 2.055,5.994 2.785,10.511 C -2.294,-7.239 0,-4.601 0,0 Z"
         style="fill:none;stroke:#c23643;stroke-width:0.48;stroke-linecap:butt;stroke-linejoin:miter;stroke-miterlimit:10;stroke-dasharray:none;stroke-opacity:1"
         id="path2029" />
    </g>
    <g
       id="g2031"
       transform="matrix(0.35277777,0,0,-0.35277777,136.55264,57.393741)">
      <path
         d="m 0,0 c 0,39.178 -27.273,72.074 -63.14,82.372 7.54,2.165 15.28,3.295 23.515,3.295 28.087,0 52.282,-13.596 67.944,-34.447 10.778,-14.349 16.935,-32.648 16.935,-51.975 0,-47.413 -38.999,-86.988 -86.412,-86.988 -8.235,0 -16.299,0.959 -23.838,3.124 4.483,1.288 7.924,4.737 12.074,6.703 4.192,1.985 6.203,4.59 9.988,7.201 3.806,2.625 8.833,6.956 12.16,10.146 3.329,3.192 6.061,8.636 8.843,12.325 2.77,3.673 7.036,6.638 9.196,10.737 2.139,4.059 5.745,9.248 7.22,13.658 1.45,4.336 2.223,6.84 2.968,11.453 C -1.82,-7.902 0,-4.698 0,0 Z"
         style="fill:none;stroke:#c23643;stroke-width:0.485;stroke-linecap:butt;stroke-linejoin:miter;stroke-miterlimit:10;stroke-dasharray:none;stroke-opacity:1"
         id="path2033" />
    </g>
    <g
       id="g2035"
       transform="matrix(0.35277777,0,0,-0.35277777,137.64078,57.469341)">
      <path
         d="m 0,0 c 0,39.994 -27.477,73.628 -64.091,84.141 7.697,2.211 15.678,3.375 24.085,3.375 28.671,0 53.633,-13.84 69.622,-35.127 11.002,-14.647 17.368,-33.163 17.368,-52.892 0,-48.401 -39.612,-88.397 -88.013,-88.397 -8.407,0 -16.603,1.051 -24.299,3.261 4.576,1.314 8.405,4.196 12.642,6.202 4.278,2.027 7.037,4.583 10.901,7.249 3.886,2.68 8.506,6.603 11.903,9.859 3.399,3.259 6.308,8.112 9.148,11.878 2.828,3.75 6.551,7.109 8.756,11.293 2.183,4.144 5.233,9.108 6.739,13.611 1.48,4.426 2.389,7.686 3.15,12.395 C -1.347,-8.565 0,-4.796 0,0 Z"
         style="fill:none;stroke:#c23643;stroke-width:0.49;stroke-linecap:butt;stroke-linejoin:miter;stroke-miterlimit:10;stroke-dasharray:none;stroke-opacity:1"
         id="path2037" />
    </g>
    <g
       id="g2039"
       transform="matrix(0.35277777,0,0,-0.35277777,138.72896,57.544941)">
      <path
         d="m 0,0 c 0,40.81 -27.681,75.183 -65.042,85.91 7.854,2.256 16.075,3.455 24.654,3.455 29.257,0 54.985,-14.085 71.3,-35.806 11.226,-14.946 17.802,-33.679 17.802,-53.811 0,-49.388 -40.225,-89.805 -89.613,-89.805 -8.579,0 -16.908,1.143 -24.761,3.398 4.67,1.341 8.886,3.654 13.209,5.702 4.366,2.068 7.873,4.576 11.816,7.295 3.965,2.735 8.179,6.251 11.645,9.573 3.468,3.325 6.555,7.589 9.453,11.431 2.886,3.827 6.065,7.58 8.315,11.849 2.228,4.228 4.722,8.969 6.258,13.563 1.51,4.517 2.557,8.532 3.333,13.337 C -0.874,-9.228 0,-4.894 0,0 Z"
         style="fill:none;stroke:#c23643;stroke-width:0.495;stroke-linecap:butt;stroke-linejoin:miter;stroke-miterlimit:10;stroke-dasharray:none;stroke-opacity:1"
         id="path2041" />
    </g>
    <g
       id="g2043"
       transform="matrix(0.35277777,0,0,-0.35277777,139.8171,57.620542)">
      <path
         d="m 0,0 c 0,-41.626 -27.884,-76.737 -65.992,-87.68 8.01,-2.3 16.472,-3.535 25.222,-3.535 50.376,0 91.214,40.839 91.214,91.215 0,50.376 -40.838,91.215 -91.214,91.215 -8.75,0 -17.212,-1.235 -25.222,-3.535 C -27.884,76.737 0,41.626 0,0 Z"
         style="fill:none;stroke:#c23643;stroke-width:0.5;stroke-linecap:butt;stroke-linejoin:miter;stroke-miterlimit:10;stroke-dasharray:none;stroke-opacity:1"
         id="path2045" />
    </g>
  </g>
</svg>
