<svg id="tck" width="280" height="280" viewBox="0 0 400 400" xmlns="http://www.w3.org/2000/svg"
  xmlns:svg="http://www.w3.org/2000/svg">
  <defs>
    <linearGradient id="tckp" x1="50%" x2="57%" y1="0%" y2="100%">
      <stop offset="0%" stop-color="#8e2de2" />
      <stop offset="20%" stop-color="#6337ba" />
      <stop offset="42%" stop-color="#a36dd3" />
      <stop offset="80%" stop-color="#4a00e0" />
    </linearGradient>
    <linearGradient id="tckw" x1="200" y1="0" x2="7" y2="400" gradientUnits="userSpaceOnUse">
      <stop stop-color="white" />
      <stop offset="0.286458" stop-color="#EEFDFF" />
      <stop offset="0.630208" stop-color="#F2ECFF" />
      <stop offset="0.828125" stop-color="white" />
      <stop offset="1" stop-color="white" />
    </linearGradient>
    <clipPath id="tcksq">
      <path d="M25,25c25-25,25-25,50,0s25,25,0,50s-25,25-50,0s-25-25,0-50Z" />
    </clipPath>
    <!-- Sol alt mor -->
    <filter id="tcksam" x="-23.4732" y="103.323" width="334.446" height="477.802" filterUnits="userSpaceOnUse"
      color-interpolation-filters="sRGB">
      <feBlend mode="normal" in="SourceGraphic" />
      <feGaussianBlur stdDeviation="27" />
    </filter>
    <!-- Üstten gelen koyu mavi-->
    <filter id="tckugk" x="-111.265" y="-235.711" width="494.072" height="654.905" filterUnits="userSpaceOnUse"
      color-interpolation-filters="sRGB">
      <feBlend mode="normal" in="SourceGraphic" />
      <feGaussianBlur stdDeviation="42" />
    </filter>
    <!-- Alt orta mor -->
    <filter id="tckaom" x="89.5561" y="-25.6872" width="552.048" height="666.22" filterUnits="userSpaceOnUse"
      color-interpolation-filters="sRGB">
      <feBlend mode="normal" in="SourceGraphic" />
      <feGaussianBlur stdDeviation="34" />
    </filter>
    <!-- Cam göbeği blend -->
    <filter id="tckcgb" x="-41.7933" y="-36.8208" width="623.86" height="646.327" filterUnits="userSpaceOnUse"
      color-interpolation-filters="sRGB">
      <feBlend mode="normal" in="SourceGraphic" />
      <feGaussianBlur stdDeviation="22" />
    </filter>
    <!-- Sağ üst mavi -->
    <filter id="tcksum" x="161.478" y="-392.698" width="434.159" height="644.074" filterUnits="userSpaceOnUse"
      color-interpolation-filters="sRGB">
      <feBlend mode="normal" in="SourceGraphic" />
      <feGaussianBlur stdDeviation="20" />
    </filter>
    <!-- Radyal Mavi -->
    <radialGradient id="tckrm" cx="0" cy="0" r="1" gradientUnits="userSpaceOnUse"
      gradientTransform="translate(526.348 89.6089) rotate(-125.623) scale(441.78 373.984)">
      <stop offset="0.447917" stop-color="#7D8AFA" />
      <stop offset="0.572917" stop-color="#5698E2" />
      <stop offset="0.869792" stop-color="#2A4DC1" />
    </radialGradient>
    <!-- Cam Göbeği 2-->
    <linearGradient id="tckcg2" x1="560.27" y1="483.094" x2="474.592" y2="-52.9144" gradientUnits="userSpaceOnUse">
      <stop stop-color="#7D8AFA" />
      <stop offset="0.203125" stop-color="#8E2DE2" />
      <stop offset="0.4375" stop-color="#5698E2" />
      <stop offset="0.505208" stop-color="#2A4DC1" />
    </linearGradient>
    <!-- Cam göbeği -->
    <radialGradient id="tckcg" cx="0" cy="0" r="1" gradientUnits="userSpaceOnUse"
      gradientTransform="translate(105.051 355.226) rotate(-24.5399) scale(441.549 373.789)">
      <stop offset="0.12" stop-color="#2A4DC1" />
      <stop offset="0.285" stop-color="#935BCA" />
      <stop offset="0.465" stop-color="#5698E2" />
    </radialGradient>
    <!-- Sağ üst mor -->
    <radialGradient id="tcksu" cx="0" cy="0" r="1" gradientUnits="userSpaceOnUse"
      gradientTransform="translate(-207.652 171.26) rotate(52.8058) scale(438.404 360.309)">
      <stop offset="0.833333" stop-color="#C4659F" />
      <stop offset="1" stop-color="#7D8AFA" />
    </radialGradient>
    <circle id="tcks0" cx="11" cy="11" r="11" />
    <path id="tcks1" d="M5,5c6-6,6-6,12,0s6,6,0,12s-6,6-12,0s-6-6,0-12Z" />
    <rect id="tcks2" x="0.5" y="0.5" width="21" height="21" />
    <rect id="tcks3" width="22" height="22" rx="8" />
    <path id="tcks4"
      d="M6.9 0.6C3.58 0.6 0.885 3.28 0.885 6.591L0.885 10.728C0.885 12.22 1.445 13.658 2.454 14.7619L6.95139 19.6785C9.334 22.289 13.4675 22.2895 15.856 19.6785L20.3534 14.762C21.3627 13.6586 21.922 12.22 21.922 10.728L21.922 6.591C21.922 3.282 19.226 0.6 15.9 0.6L6.9 0.6Z" />
    <path id="tcks5" d="M0,0A22,22,0,0,0,22,22V0Z" />
    <path id="tcks6" d="M0 0h10c 7 0 12 5 12 11s-5 11 -12 11H0Z" />
    <rect id="tcks7" width="44" height="22" rx="10" />
    <path id="tcks8" d="M0 0a22 22 0 0 0 44 0z" />
    <rect id="tcks15" width="66" height="22" rx="10" />
    <path id="tcks10"
      d="M13.847 22.375a11 11 0 1 0 7.778 7.778a7 7 0 0 1 8.528 -8.528a11 11 0 1 0 -7.778 -7.778a7 7 0 0 1 -8.528 8.528" />
    <path id="tcks11"
      d="M7.238 22.663a11 11 0 1 0 7.524 0c-0.413 -0.15 -0.413 -1.176 0 -1.327a11 11 0 1 0 -7.524 0c0.413 0.15 0.413 1.176 0 1.327z" />
    <path id="tcks12" d="M0 4C0 0.4 0.4 0 4 0H33A11 11 0 0 1 33 22H4C0.4 22 0 21.6 0 18z" />
    <path id="tcks13"
      d="M0 6C0 1.2 1.2 0 6 0H27C31.8 0 33.849 0.849 37.243 4.243L39.757 6.757C43.151 10.151 43.151 11.849 39.757 15.243L37.243 17.757C33.849 21.151 31.8 22 27 22H6C1.2 22 0 20.8 0 16z" />
    <path id="tcks14"
      d="M0.454 32.788C0.454 26.394 12.758 26.859 12.758 21.984C12.758 17.334 0.454 17.574 0.454 11.621C0.454 7.595 8.815 2.97 15.009 1.123C18.349 0.127 21.546 2.714 21.546 6.211V37.776C21.546 41.272 18.348 43.861 15.003 42.884C8.81 41.075 0.454 36.535 0.454 32.788z" />
    <path id="tcks16"
      d="M11 22a11 11 0 0 0 0 22a11 11 0 0 1 11 11a11 11 0 0 0 22 0a11 11 0 0 1 11 -11a11 11 0 0 0 0 -22a11 11 0 0 1 -11 -11a11 11 0 0 0 -22 0a11 11 0 0 1 -11 11" />
    <path id="tck0"
      d="M6.161 6.163C6.633 6.163 7.053 6.218 7.42 6.326C7.784 6.435 8.089 6.591 8.337 6.795C8.589 6.999 8.779 7.249 8.908 7.544C9.037 7.84 9.102 8.178 9.102 8.559C9.102 8.936 9.039 9.274 8.913 9.573C8.784 9.872 8.592 10.125 8.337 10.332C8.089 10.54 7.784 10.698 7.42 10.806C7.053 10.915 6.633 10.969 6.161 10.969L4.423 10.969C3.951 10.969 3.533 10.915 3.169 10.806C2.802 10.698 2.493 10.54 2.242 10.332C1.99 10.128 1.8 9.879 1.671 9.583C1.538 9.284 1.472 8.946 1.472 8.569C1.472 8.188 1.538 7.85 1.671 7.555C1.8 7.256 1.99 7.002 2.242 6.795C2.493 6.591 2.802 6.435 3.169 6.326C3.533 6.218 3.951 6.163 4.423 6.163L6.161 6.163zM5.973 10.021L3.755 7.132C3.511 7.159 3.295 7.208 3.108 7.279C2.918 7.347 2.76 7.441 2.634 7.56C2.505 7.675 2.408 7.818 2.344 7.988C2.279 8.154 2.247 8.348 2.247 8.569C2.247 8.793 2.282 8.992 2.354 9.165C2.422 9.335 2.522 9.479 2.655 9.598C2.821 9.741 3.037 9.848 3.302 9.919C3.563 9.987 3.868 10.021 4.214 10.021L5.458 10.021C5.543 10.021 5.628 10.021 5.713 10.021C5.798 10.021 5.884 10.021 5.973 10.021zM6.36 7.111L5.31 7.111C5.259 7.111 5.162 7.111 5.019 7.111C4.873 7.111 4.753 7.111 4.658 7.111L6.864 9.996C7.113 9.965 7.332 9.911 7.522 9.833C7.709 9.755 7.863 9.653 7.986 9.527C8.101 9.411 8.19 9.272 8.251 9.109C8.309 8.946 8.337 8.762 8.337 8.559C8.337 8.345 8.305 8.154 8.241 7.988C8.176 7.821 8.083 7.68 7.96 7.565C7.794 7.408 7.576 7.295 7.308 7.223C7.039 7.149 6.723 7.111 6.36 7.111z" />
    <path id="tck1" d="M9 7.719L9 8.662L2.782 8.662L3.521 10.604L2.66 10.604L1.579 7.796L1.579 7.719L9 7.719z" />
    <path id="tck2"
      d="M9 6.182L9 11.044L8.322 11.044L5.621 8.613C5.38 8.396 5.166 8.214 4.979 8.068C4.792 7.922 4.618 7.804 4.459 7.716C4.302 7.628 4.155 7.565 4.015 7.527C3.873 7.49 3.727 7.471 3.577 7.471C3.394 7.471 3.222 7.502 3.062 7.563C2.899 7.621 2.758 7.706 2.639 7.818C2.52 7.933 2.427 8.073 2.359 8.236C2.288 8.396 2.252 8.577 2.252 8.781C2.252 9.029 2.288 9.245 2.359 9.429C2.43 9.609 2.531 9.758 2.66 9.877C2.792 9.999 2.952 10.091 3.139 10.152C3.326 10.21 3.535 10.239 3.766 10.239L3.766 11.187C3.453 11.187 3.159 11.133 2.884 11.024C2.605 10.915 2.362 10.757 2.155 10.55C1.948 10.346 1.783 10.096 1.661 9.801C1.538 9.502 1.477 9.162 1.477 8.781C1.477 8.431 1.53 8.117 1.635 7.838C1.737 7.556 1.88 7.319 2.063 7.125C2.247 6.931 2.464 6.783 2.716 6.681C2.967 6.576 3.241 6.523 3.536 6.523C3.757 6.523 3.976 6.561 4.194 6.636C4.408 6.71 4.62 6.811 4.831 6.936C5.042 7.065 5.25 7.215 5.458 7.385C5.662 7.551 5.865 7.728 6.069 7.915L8.23 9.908L8.23 6.182L9 6.182z" />
    <path id="tck3"
      d="M4.836 9.588L4.836 8.916C4.836 8.678 4.804 8.469 4.739 8.289C4.675 8.105 4.586 7.951 4.474 7.825C4.362 7.702 4.228 7.609 4.071 7.544C3.915 7.48 3.744 7.448 3.557 7.448C3.336 7.448 3.144 7.477 2.981 7.534C2.814 7.592 2.677 7.677 2.568 7.789C2.463 7.898 2.384 8.034 2.333 8.197C2.279 8.357 2.252 8.54 2.252 8.747C2.252 8.948 2.282 9.131 2.344 9.298C2.401 9.461 2.486 9.6 2.598 9.716C2.711 9.835 2.845 9.926 3.001 9.991C3.157 10.055 3.332 10.088 3.526 10.088L3.526 11.036C3.244 11.036 2.979 10.981 2.731 10.873C2.48 10.761 2.26 10.604 2.074 10.404C1.89 10.203 1.746 9.964 1.64 9.685C1.532 9.403 1.477 9.09 1.477 8.747C1.477 8.414 1.523 8.11 1.615 7.835C1.703 7.56 1.836 7.324 2.012 7.127C2.189 6.929 2.408 6.776 2.67 6.668C2.931 6.559 3.234 6.505 3.577 6.505C3.72 6.505 3.868 6.527 4.02 6.571C4.173 6.615 4.321 6.683 4.464 6.775C4.61 6.867 4.748 6.985 4.877 7.132C5.002 7.274 5.108 7.446 5.193 7.646C5.271 7.405 5.373 7.205 5.499 7.045C5.624 6.882 5.765 6.751 5.922 6.653C6.078 6.557 6.243 6.491 6.416 6.454C6.589 6.413 6.761 6.393 6.931 6.393C7.277 6.393 7.585 6.452 7.853 6.571C8.122 6.69 8.348 6.855 8.531 7.065C8.718 7.276 8.861 7.526 8.959 7.815C9.054 8.1 9.102 8.409 9.102 8.742C9.102 9.068 9.056 9.376 8.964 9.665C8.873 9.95 8.738 10.198 8.562 10.409C8.385 10.619 8.169 10.788 7.914 10.913C7.66 11.036 7.369 11.097 7.043 11.097L7.043 10.154C7.237 10.154 7.413 10.122 7.573 10.057C7.733 9.989 7.869 9.894 7.981 9.772C8.093 9.649 8.179 9.502 8.241 9.328C8.302 9.152 8.332 8.956 8.332 8.742C8.332 8.528 8.305 8.334 8.251 8.161C8.193 7.988 8.106 7.84 7.991 7.718C7.875 7.595 7.733 7.502 7.563 7.437C7.389 7.369 7.186 7.336 6.951 7.336C6.72 7.336 6.521 7.375 6.355 7.453C6.185 7.527 6.044 7.633 5.932 7.769C5.82 7.908 5.736 8.076 5.682 8.273C5.628 8.467 5.6 8.681 5.6 8.916L5.6 9.588L4.836 9.588z" />
    <path id="tck4"
      d="M6.508 6.822L6.508 5.788L7.277 5.788L7.277 6.822L9 6.822L9 7.765L7.277 7.765L7.277 11.15L6.722 11.15L1.579 7.826L1.579 6.822L6.508 6.822zM6.508 10.105L6.508 7.765L2.833 7.765L3.118 7.918L6.508 10.105z" />
    <path id="tck5"
      d="M5.279 10.264L1.579 9.892L1.579 6.085L2.497 6.085L2.497 9.097L4.474 9.306C4.389 9.16 4.314 8.985 4.25 8.781C4.185 8.577 4.153 8.341 4.153 8.073C4.153 7.73 4.212 7.422 4.331 7.15C4.45 6.879 4.617 6.648 4.831 6.457C5.048 6.267 5.31 6.121 5.616 6.019C5.922 5.917 6.261 5.866 6.635 5.866C6.988 5.866 7.316 5.913 7.619 6.009C7.921 6.104 8.181 6.246 8.399 6.437C8.619 6.63 8.793 6.873 8.918 7.166C9.041 7.458 9.102 7.801 9.102 8.195C9.102 8.498 9.059 8.783 8.975 9.051C8.89 9.32 8.762 9.558 8.592 9.765C8.422 9.976 8.208 10.149 7.95 10.285C7.692 10.417 7.391 10.501 7.048 10.535L7.048 9.638C7.469 9.58 7.789 9.425 8.006 9.174C8.224 8.919 8.332 8.593 8.332 8.195C8.332 7.971 8.293 7.772 8.215 7.599C8.134 7.426 8.018 7.279 7.869 7.16C7.722 7.045 7.546 6.958 7.338 6.901C7.131 6.839 6.9 6.809 6.645 6.809C6.414 6.809 6.198 6.843 5.998 6.911C5.798 6.975 5.623 7.071 5.473 7.196C5.327 7.322 5.211 7.477 5.126 7.66C5.042 7.843 4.999 8.054 4.999 8.292C4.999 8.448 5.011 8.584 5.035 8.7C5.055 8.812 5.086 8.914 5.126 9.006C5.167 9.097 5.217 9.184 5.274 9.266C5.332 9.344 5.398 9.425 5.473 9.51L5.279 10.264z" />
    <path id="tck6"
      d="M1.574 7.081L2.42 7.081L2.42 7.162C2.42 7.611 2.485 7.991 2.614 8.304C2.739 8.617 2.909 8.875 3.123 9.079C3.348 9.293 3.614 9.456 3.924 9.568C4.233 9.677 4.551 9.741 4.877 9.762C4.771 9.673 4.675 9.571 4.586 9.456C4.494 9.34 4.415 9.215 4.347 9.079C4.282 8.946 4.231 8.803 4.194 8.651C4.153 8.494 4.133 8.331 4.133 8.161C4.133 7.791 4.204 7.471 4.347 7.203C4.486 6.935 4.671 6.714 4.902 6.541C5.133 6.367 5.395 6.24 5.687 6.158C5.979 6.077 6.277 6.036 6.579 6.036C6.926 6.036 7.252 6.085 7.558 6.184C7.863 6.279 8.13 6.423 8.358 6.617C8.589 6.811 8.771 7.052 8.903 7.341C9.036 7.626 9.102 7.957 9.102 8.334C9.102 8.715 9.025 9.05 8.873 9.339C8.72 9.627 8.521 9.87 8.276 10.067C8.008 10.288 7.695 10.453 7.338 10.562C6.978 10.67 6.618 10.725 6.258 10.725L5.815 10.725C5.196 10.725 4.588 10.652 3.99 10.506C3.392 10.36 2.881 10.074 2.456 9.65C2.164 9.357 1.944 9.002 1.798 8.584C1.649 8.166 1.574 7.692 1.574 7.162L1.574 7.081zM4.918 8.314C4.918 8.474 4.943 8.628 4.994 8.778C5.045 8.927 5.116 9.067 5.208 9.196C5.3 9.325 5.41 9.439 5.539 9.537C5.668 9.636 5.811 9.714 5.967 9.772L6.283 9.772C6.61 9.772 6.9 9.733 7.155 9.655C7.406 9.576 7.619 9.471 7.792 9.339C7.965 9.206 8.098 9.053 8.19 8.88C8.278 8.707 8.322 8.525 8.322 8.334C8.322 8.114 8.28 7.918 8.195 7.748C8.11 7.578 7.993 7.434 7.843 7.315C7.694 7.2 7.515 7.113 7.308 7.055C7.097 6.994 6.87 6.964 6.625 6.964C6.407 6.964 6.197 6.991 5.993 7.045C5.786 7.099 5.602 7.183 5.442 7.295C5.283 7.407 5.155 7.548 5.06 7.718C4.965 7.888 4.918 8.087 4.918 8.314z" />
    <path id="tck7" d="M2.109 5.813L9 8.887L9 9.875L2.405 6.812L2.405 10.828L1.579 10.828L1.579 5.813L2.109 5.813z" />
    <path id="tck8"
      d="M3.516 5.902C3.764 5.905 3.997 5.953 4.214 6.044C4.428 6.136 4.617 6.264 4.78 6.427C4.858 6.505 4.931 6.592 4.999 6.687C5.067 6.782 5.128 6.884 5.183 6.992C5.264 6.802 5.366 6.63 5.488 6.478C5.607 6.321 5.745 6.187 5.901 6.075C6.057 5.966 6.227 5.883 6.411 5.825C6.594 5.764 6.79 5.733 6.997 5.733C7.333 5.733 7.632 5.796 7.894 5.922C8.156 6.044 8.375 6.211 8.551 6.422C8.732 6.636 8.869 6.885 8.964 7.171C9.056 7.456 9.102 7.762 9.102 8.088C9.102 8.421 9.056 8.732 8.964 9.021C8.873 9.306 8.737 9.554 8.557 9.765C8.38 9.979 8.161 10.147 7.899 10.27C7.637 10.392 7.337 10.453 6.997 10.453C6.79 10.453 6.594 10.424 6.411 10.367C6.224 10.309 6.052 10.225 5.896 10.117C5.743 10.008 5.606 9.877 5.483 9.724C5.361 9.571 5.259 9.4 5.177 9.209C5.096 9.373 4.999 9.52 4.887 9.653C4.771 9.785 4.642 9.898 4.5 9.989C4.36 10.081 4.207 10.152 4.041 10.203C3.874 10.254 3.699 10.28 3.516 10.28C3.193 10.28 2.906 10.225 2.655 10.117C2.4 10.008 2.186 9.857 2.012 9.663C1.839 9.473 1.707 9.245 1.615 8.98C1.523 8.712 1.477 8.42 1.477 8.103C1.477 7.791 1.523 7.5 1.615 7.232C1.707 6.964 1.839 6.731 2.012 6.534C2.186 6.337 2.4 6.182 2.655 6.07C2.906 5.958 3.193 5.902 3.516 5.902zM6.977 6.676C6.769 6.676 6.579 6.712 6.406 6.783C6.232 6.851 6.083 6.948 5.957 7.074C5.835 7.2 5.74 7.351 5.672 7.528C5.604 7.701 5.57 7.891 5.57 8.098C5.57 8.313 5.604 8.506 5.672 8.679C5.74 8.853 5.835 9.001 5.957 9.123C6.083 9.245 6.232 9.34 6.406 9.408C6.579 9.473 6.769 9.505 6.977 9.505C7.191 9.505 7.383 9.473 7.553 9.408C7.719 9.34 7.86 9.245 7.976 9.123C8.091 9.001 8.179 8.853 8.241 8.679C8.302 8.503 8.332 8.306 8.332 8.088C8.332 7.881 8.302 7.691 8.241 7.517C8.179 7.344 8.091 7.195 7.976 7.069C7.86 6.947 7.719 6.851 7.553 6.783C7.383 6.712 7.191 6.676 6.977 6.676zM3.531 6.85C3.344 6.85 3.173 6.882 3.016 6.947C2.86 7.008 2.724 7.093 2.609 7.201C2.497 7.313 2.41 7.446 2.349 7.599C2.284 7.752 2.252 7.92 2.252 8.103C2.252 8.287 2.282 8.453 2.344 8.603C2.401 8.752 2.486 8.882 2.598 8.99C2.711 9.099 2.847 9.184 3.006 9.245C3.163 9.303 3.338 9.332 3.531 9.332C3.725 9.332 3.9 9.303 4.056 9.245C4.209 9.184 4.34 9.097 4.449 8.985C4.561 8.877 4.647 8.747 4.709 8.598C4.766 8.445 4.795 8.277 4.795 8.093C4.795 7.913 4.766 7.747 4.709 7.594C4.647 7.441 4.561 7.308 4.449 7.196C4.34 7.088 4.207 7.003 4.051 6.941C3.895 6.88 3.721 6.85 3.531 6.85z" />
    <path id="tck9"
      d="M8.164 9.41C8.164 8.934 8.108 8.539 7.996 8.222C7.88 7.903 7.719 7.647 7.512 7.453C7.257 7.218 6.983 7.06 6.691 6.979C6.399 6.897 6.097 6.848 5.784 6.831L5.774 6.831C5.876 6.913 5.973 7.006 6.064 7.111C6.153 7.217 6.231 7.336 6.299 7.468C6.367 7.601 6.421 7.749 6.462 7.912C6.499 8.071 6.518 8.246 6.518 8.437C6.518 8.804 6.447 9.121 6.304 9.39C6.158 9.655 5.967 9.874 5.733 10.047C5.499 10.22 5.234 10.348 4.938 10.429C4.642 10.511 4.345 10.552 4.046 10.552C3.696 10.552 3.366 10.504 3.057 10.409C2.745 10.31 2.471 10.164 2.237 9.971C2.006 9.78 1.822 9.542 1.686 9.257C1.547 8.968 1.477 8.634 1.477 8.253C1.477 7.873 1.549 7.543 1.691 7.264C1.831 6.982 2.016 6.746 2.247 6.556C2.519 6.332 2.858 6.163 3.266 6.051C3.671 5.939 4.075 5.883 4.479 5.883L4.821 5.883C5.395 5.883 5.973 5.944 6.554 6.066C7.131 6.189 7.644 6.45 8.093 6.851C8.365 7.093 8.585 7.427 8.755 7.855C8.922 8.28 9.005 8.798 9.005 9.41L9.005 9.507L8.164 9.507L8.164 9.41zM5.738 8.284C5.738 8.124 5.713 7.969 5.662 7.82C5.607 7.667 5.531 7.526 5.432 7.397C5.337 7.271 5.225 7.159 5.096 7.06C4.963 6.959 4.817 6.879 4.658 6.821L4.352 6.821C4.022 6.821 3.728 6.86 3.47 6.938C3.212 7.013 2.993 7.115 2.813 7.244C2.636 7.376 2.5 7.529 2.405 7.703C2.31 7.873 2.262 8.054 2.262 8.248C2.262 8.469 2.306 8.664 2.395 8.834C2.483 9.004 2.604 9.147 2.756 9.262C2.913 9.381 3.098 9.471 3.312 9.532C3.523 9.593 3.75 9.624 3.995 9.624C4.212 9.624 4.427 9.597 4.637 9.542C4.844 9.488 5.03 9.405 5.193 9.293C5.356 9.184 5.488 9.046 5.59 8.88C5.689 8.71 5.738 8.511 5.738 8.284z" />
    <path id="tckA"
      d="M7.079 6.838L7.079 9.315L9 9.911L9 10.854L1.579 8.459L1.579 7.669L9 5.314L9 6.252L7.079 6.838zM6.258 9.06L6.258 7.088L3.037 8.066L6.258 9.06z" />
    <path id="tckB"
      d="M9 10.346L1.579 10.346L1.579 8.139C1.583 7.834 1.623 7.534 1.701 7.242C1.776 6.95 1.893 6.69 2.053 6.462C2.213 6.235 2.417 6.053 2.665 5.917C2.913 5.781 3.21 5.715 3.557 5.718C3.75 5.722 3.927 5.754 4.087 5.815C4.246 5.873 4.389 5.953 4.515 6.055C4.644 6.16 4.753 6.277 4.841 6.406C4.929 6.532 5.013 6.685 5.091 6.865L5.106 6.865C5.15 6.678 5.23 6.498 5.346 6.325C5.461 6.151 5.589 6.009 5.728 5.897C5.881 5.778 6.052 5.686 6.243 5.621C6.433 5.554 6.639 5.519 6.859 5.519C7.206 5.516 7.512 5.582 7.777 5.718C8.042 5.854 8.263 6.036 8.439 6.264C8.619 6.491 8.757 6.755 8.852 7.054C8.947 7.349 8.997 7.655 9 7.971L9 10.346zM5.529 9.398L8.2 9.398L8.2 7.946C8.196 7.749 8.164 7.562 8.103 7.385C8.038 7.208 7.95 7.052 7.838 6.916C7.726 6.78 7.588 6.673 7.425 6.595C7.262 6.513 7.077 6.473 6.87 6.473C6.659 6.469 6.472 6.505 6.309 6.58C6.146 6.651 6.007 6.751 5.891 6.88C5.779 7.01 5.692 7.161 5.631 7.334C5.57 7.507 5.536 7.694 5.529 7.895L5.529 9.398zM4.744 9.398L4.744 8.083C4.741 7.906 4.714 7.733 4.663 7.563C4.608 7.393 4.53 7.242 4.428 7.11C4.33 6.977 4.207 6.87 4.061 6.789C3.915 6.707 3.745 6.666 3.552 6.666C3.344 6.666 3.168 6.707 3.022 6.789C2.875 6.867 2.755 6.972 2.66 7.105C2.568 7.24 2.5 7.397 2.456 7.573C2.412 7.747 2.388 7.925 2.384 8.109L2.384 9.398L4.744 9.398z" />
    <path id="tckC"
      d="M6.768 5.486C7.111 5.53 7.427 5.618 7.716 5.751C8.001 5.883 8.246 6.055 8.45 6.265C8.657 6.479 8.818 6.733 8.934 7.025C9.046 7.314 9.102 7.636 9.102 7.993C9.102 8.299 9.059 8.578 8.975 8.829C8.886 9.077 8.766 9.298 8.613 9.492C8.46 9.689 8.28 9.859 8.072 10.001C7.865 10.141 7.639 10.256 7.395 10.348C7.15 10.443 6.893 10.514 6.625 10.562C6.356 10.606 6.085 10.63 5.809 10.633L4.775 10.633C4.5 10.63 4.228 10.606 3.959 10.562C3.691 10.514 3.434 10.443 3.19 10.348C2.945 10.256 2.719 10.141 2.512 10.001C2.301 9.859 2.119 9.689 1.966 9.492C1.814 9.298 1.695 9.077 1.61 8.829C1.521 8.581 1.477 8.302 1.477 7.993C1.477 7.623 1.535 7.291 1.65 6.999C1.763 6.707 1.922 6.456 2.13 6.245C2.34 6.034 2.592 5.866 2.884 5.74C3.176 5.611 3.499 5.526 3.852 5.486L3.852 6.429C3.628 6.459 3.419 6.512 3.225 6.587C3.032 6.661 2.862 6.761 2.716 6.887C2.57 7.013 2.456 7.168 2.374 7.351C2.289 7.531 2.247 7.745 2.247 7.993C2.247 8.217 2.284 8.416 2.359 8.59C2.43 8.759 2.529 8.906 2.655 9.028C2.78 9.153 2.926 9.259 3.093 9.344C3.259 9.425 3.436 9.492 3.623 9.543C3.81 9.594 4.002 9.631 4.199 9.655C4.393 9.675 4.581 9.685 4.765 9.685L5.809 9.685C5.993 9.685 6.183 9.675 6.38 9.655C6.574 9.631 6.764 9.594 6.951 9.543C7.141 9.492 7.32 9.425 7.486 9.344C7.653 9.262 7.799 9.159 7.925 9.033C8.054 8.907 8.156 8.759 8.23 8.59C8.302 8.42 8.337 8.221 8.337 7.993C8.337 7.745 8.298 7.531 8.22 7.351C8.142 7.168 8.032 7.013 7.889 6.887C7.75 6.761 7.585 6.661 7.395 6.587C7.201 6.512 6.992 6.459 6.768 6.429L6.768 5.486z" />
    <path id="tckD"
      d="M9 10.344L1.579 10.344L1.579 8.627C1.583 8.338 1.613 8.066 1.671 7.811C1.725 7.553 1.803 7.315 1.905 7.098C2.045 6.796 2.228 6.529 2.456 6.298C2.68 6.063 2.94 5.876 3.236 5.737C3.487 5.611 3.762 5.516 4.061 5.452C4.36 5.384 4.68 5.348 5.019 5.345L5.565 5.345C5.891 5.345 6.2 5.377 6.492 5.441C6.785 5.503 7.053 5.593 7.298 5.712C7.553 5.834 7.784 5.989 7.991 6.175C8.198 6.362 8.375 6.571 8.521 6.802C8.674 7.047 8.791 7.324 8.873 7.633C8.954 7.939 8.997 8.27 9 8.627L9 10.344zM2.354 9.386L8.23 9.386L8.23 8.627C8.227 8.355 8.193 8.109 8.128 7.888C8.064 7.664 7.972 7.465 7.853 7.292C7.731 7.108 7.581 6.95 7.405 6.818C7.225 6.682 7.024 6.575 6.803 6.496C6.623 6.429 6.43 6.377 6.222 6.344C6.012 6.31 5.792 6.291 5.565 6.287L5.009 6.287C4.778 6.291 4.557 6.311 4.347 6.349C4.133 6.383 3.934 6.435 3.75 6.507C3.513 6.598 3.298 6.722 3.108 6.879C2.914 7.032 2.758 7.22 2.639 7.445C2.551 7.604 2.483 7.782 2.435 7.98C2.384 8.177 2.357 8.392 2.354 8.627L2.354 9.386z" />
    <path id="tckE"
      d="M5.57 6.121L5.57 9.22L8.2 9.22L8.2 5.606L9 5.606L9 10.163L1.579 10.163L1.579 5.652L2.384 5.652L2.384 9.22L4.77 9.22L4.77 6.121L5.57 6.121z" />
    <path id="tckF"
      d="M5.723 6.031L5.723 9.12L9 9.12L9 10.073L1.579 10.073L1.579 5.516L2.384 5.516L2.384 9.12L4.923 9.12L4.923 6.031L5.723 6.031z" />
    <path id="tcka"
      d="M9 6.491C8.929 6.529 8.84 6.559 8.735 6.583C8.626 6.604 8.514 6.619 8.399 6.629C8.494 6.724 8.584 6.831 8.669 6.95C8.754 7.066 8.828 7.193 8.893 7.332C8.958 7.475 9.008 7.626 9.046 7.786C9.083 7.946 9.102 8.116 9.102 8.296C9.102 8.588 9.059 8.853 8.975 9.091C8.89 9.325 8.774 9.524 8.628 9.687C8.485 9.854 8.315 9.983 8.118 10.074C7.918 10.163 7.702 10.207 7.471 10.207C7.169 10.207 6.904 10.148 6.676 10.029C6.448 9.906 6.258 9.735 6.105 9.514C5.956 9.293 5.843 9.028 5.769 8.719C5.694 8.406 5.657 8.058 5.657 7.674L5.657 6.644L5.223 6.644C5.057 6.644 4.907 6.675 4.775 6.736C4.642 6.797 4.528 6.884 4.433 6.996C4.342 7.108 4.27 7.246 4.219 7.409C4.168 7.569 4.143 7.749 4.143 7.949C4.143 8.136 4.167 8.304 4.214 8.454C4.262 8.6 4.325 8.724 4.403 8.826C4.481 8.928 4.574 9.008 4.683 9.065C4.788 9.12 4.899 9.147 5.014 9.147L5.014 10.095C4.814 10.091 4.617 10.04 4.423 9.942C4.229 9.84 4.054 9.694 3.898 9.504C3.745 9.317 3.621 9.089 3.526 8.821C3.431 8.549 3.383 8.241 3.383 7.898C3.383 7.586 3.422 7.295 3.501 7.027C3.575 6.758 3.689 6.525 3.842 6.328C3.998 6.135 4.192 5.982 4.423 5.87C4.654 5.758 4.924 5.701 5.234 5.701L7.797 5.701C7.981 5.701 8.176 5.684 8.383 5.65C8.587 5.616 8.766 5.569 8.918 5.508L9 5.508L9 6.491zM8.281 8.158C8.281 7.975 8.258 7.803 8.21 7.643C8.162 7.484 8.1 7.337 8.021 7.205C7.943 7.076 7.855 6.964 7.756 6.869C7.654 6.773 7.549 6.699 7.44 6.644L6.324 6.644L6.324 7.521C6.324 7.847 6.353 8.133 6.411 8.377C6.465 8.618 6.55 8.81 6.666 8.953C6.747 9.055 6.844 9.133 6.956 9.188C7.068 9.239 7.196 9.264 7.338 9.264C7.474 9.264 7.6 9.242 7.716 9.198C7.831 9.15 7.93 9.081 8.011 8.989C8.096 8.897 8.162 8.782 8.21 8.642C8.258 8.503 8.281 8.342 8.281 8.158z" />
    <path id="tckb"
      d="M6.304 5.397C6.545 5.397 6.778 5.416 7.002 5.453C7.223 5.487 7.43 5.538 7.624 5.606C7.879 5.698 8.108 5.819 8.312 5.968C8.512 6.114 8.679 6.291 8.811 6.498C8.903 6.648 8.975 6.813 9.025 6.993C9.076 7.169 9.102 7.361 9.102 7.569C9.102 7.806 9.073 8.024 9.015 8.221C8.958 8.415 8.874 8.59 8.766 8.746C8.711 8.821 8.652 8.892 8.587 8.96C8.523 9.028 8.451 9.092 8.373 9.154L9 9.2L9 10.066L1.171 10.066L1.171 9.123L4.077 9.123C3.978 9.045 3.89 8.958 3.812 8.863C3.73 8.768 3.66 8.666 3.603 8.557C3.531 8.421 3.477 8.272 3.439 8.109C3.402 7.946 3.383 7.769 3.383 7.579C3.383 7.341 3.416 7.122 3.48 6.921C3.545 6.721 3.635 6.539 3.75 6.376C3.859 6.23 3.992 6.099 4.148 5.983C4.301 5.868 4.472 5.766 4.663 5.678C4.877 5.586 5.115 5.516 5.376 5.469C5.634 5.421 5.908 5.397 6.197 5.397L6.304 5.397zM6.197 6.34C6.024 6.34 5.855 6.352 5.692 6.376C5.526 6.396 5.369 6.429 5.223 6.473C5.043 6.534 4.878 6.614 4.729 6.712C4.579 6.811 4.462 6.931 4.377 7.074C4.316 7.173 4.269 7.283 4.235 7.405C4.201 7.528 4.184 7.664 4.184 7.813C4.184 7.976 4.206 8.126 4.25 8.262C4.291 8.398 4.348 8.518 4.423 8.624C4.501 8.732 4.593 8.829 4.698 8.914C4.8 8.996 4.912 9.065 5.035 9.123L7.445 9.123C7.568 9.062 7.682 8.991 7.787 8.909C7.889 8.824 7.979 8.727 8.057 8.619C8.135 8.51 8.196 8.387 8.241 8.252C8.281 8.116 8.302 7.966 8.302 7.803C8.302 7.647 8.283 7.504 8.246 7.375C8.205 7.246 8.147 7.13 8.072 7.028C7.977 6.892 7.857 6.779 7.711 6.687C7.564 6.595 7.401 6.522 7.221 6.468C7.085 6.424 6.939 6.391 6.783 6.371C6.627 6.35 6.467 6.34 6.304 6.34L6.197 6.34z" />
    <path id="tckc"
      d="M8.337 7.677C8.337 7.507 8.31 7.343 8.256 7.183C8.202 7.02 8.125 6.875 8.027 6.75C7.931 6.624 7.819 6.524 7.69 6.449C7.558 6.371 7.415 6.33 7.262 6.327L7.262 5.435C7.507 5.438 7.741 5.503 7.965 5.628C8.186 5.751 8.38 5.916 8.546 6.123C8.716 6.33 8.852 6.568 8.954 6.836C9.053 7.105 9.102 7.385 9.102 7.677C9.102 8.095 9.027 8.461 8.878 8.773C8.728 9.086 8.526 9.346 8.271 9.553C8.02 9.764 7.729 9.922 7.4 10.027C7.067 10.132 6.717 10.185 6.35 10.185L6.136 10.185C5.772 10.185 5.424 10.132 5.091 10.027C4.758 9.922 4.464 9.764 4.209 9.553C3.958 9.346 3.757 9.086 3.608 8.773C3.458 8.461 3.383 8.095 3.383 7.677C3.383 7.351 3.436 7.052 3.541 6.78C3.643 6.505 3.783 6.267 3.959 6.067C4.139 5.87 4.352 5.715 4.596 5.603C4.841 5.491 5.103 5.435 5.381 5.435L5.381 6.327C5.215 6.33 5.059 6.367 4.912 6.439C4.763 6.507 4.632 6.6 4.52 6.719C4.408 6.838 4.319 6.981 4.255 7.147C4.19 7.31 4.158 7.487 4.158 7.677C4.158 7.97 4.218 8.216 4.336 8.416C4.452 8.613 4.603 8.773 4.79 8.895C4.98 9.018 5.193 9.106 5.427 9.16C5.662 9.211 5.898 9.237 6.136 9.237L6.35 9.237C6.591 9.237 6.83 9.211 7.068 9.16C7.303 9.106 7.513 9.018 7.7 8.895C7.891 8.777 8.045 8.619 8.164 8.421C8.28 8.221 8.337 7.973 8.337 7.677z" />
    <path id="tckd"
      d="M6.197 10.161C5.786 10.161 5.408 10.11 5.065 10.008C4.719 9.903 4.421 9.753 4.173 9.56C3.925 9.369 3.732 9.138 3.592 8.867C3.453 8.595 3.383 8.291 3.383 7.954C3.383 7.625 3.439 7.338 3.552 7.093C3.66 6.845 3.82 6.631 4.031 6.451L1.171 6.451L1.171 5.508L9 5.508L9 6.374L8.419 6.415C8.643 6.599 8.813 6.818 8.929 7.073C9.044 7.327 9.102 7.625 9.102 7.964C9.102 8.297 9.031 8.6 8.888 8.872C8.745 9.14 8.548 9.369 8.297 9.56C8.045 9.75 7.75 9.898 7.41 10.003C7.067 10.109 6.698 10.161 6.304 10.161L6.197 10.161zM6.304 9.218C6.572 9.218 6.827 9.189 7.068 9.132C7.31 9.074 7.522 8.984 7.705 8.861C7.889 8.743 8.035 8.59 8.144 8.403C8.249 8.216 8.302 7.992 8.302 7.73C8.302 7.414 8.23 7.152 8.088 6.945C7.945 6.738 7.753 6.573 7.512 6.451L4.953 6.451C4.729 6.573 4.545 6.738 4.403 6.945C4.257 7.152 4.184 7.411 4.184 7.72C4.184 7.985 4.238 8.213 4.347 8.403C4.455 8.59 4.602 8.743 4.785 8.861C4.972 8.984 5.188 9.074 5.432 9.132C5.674 9.189 5.928 9.218 6.197 9.218L6.304 9.218z" />
    <path id="tcke"
      d="M9.102 7.502C9.102 7.89 9.036 8.247 8.903 8.573C8.771 8.896 8.585 9.172 8.348 9.403C8.11 9.635 7.828 9.815 7.502 9.944C7.175 10.073 6.82 10.137 6.436 10.137L6.222 10.137C5.777 10.137 5.38 10.066 5.03 9.923C4.676 9.781 4.377 9.59 4.133 9.353C3.891 9.118 3.706 8.851 3.577 8.552C3.448 8.25 3.383 7.941 3.383 7.625C3.383 7.227 3.453 6.881 3.592 6.585C3.728 6.286 3.917 6.038 4.158 5.841C4.403 5.644 4.69 5.498 5.019 5.403C5.349 5.304 5.706 5.255 6.09 5.255L6.513 5.255L6.513 9.195L6.548 9.195C6.817 9.171 7.053 9.118 7.257 9.037C7.461 8.952 7.641 8.836 7.797 8.69C7.964 8.54 8.094 8.36 8.19 8.15C8.285 7.939 8.332 7.706 8.332 7.451C8.332 7.115 8.264 6.816 8.128 6.554C7.993 6.293 7.812 6.075 7.588 5.902L8.037 5.326C8.315 5.51 8.563 5.785 8.781 6.152C8.995 6.515 9.102 6.966 9.102 7.502zM4.158 7.625C4.158 7.815 4.194 7.995 4.265 8.165C4.333 8.335 4.433 8.488 4.566 8.624C4.702 8.76 4.868 8.875 5.065 8.97C5.259 9.062 5.483 9.127 5.738 9.164L5.738 6.198L5.692 6.198C5.522 6.198 5.341 6.23 5.147 6.294C4.95 6.359 4.78 6.449 4.637 6.565C4.494 6.68 4.379 6.826 4.291 7.003C4.202 7.176 4.158 7.383 4.158 7.625z" />
    <path id="tckf"
      d="M9 8.488L4.214 8.488L4.214 10.007L3.485 10.007L3.485 8.488L3.098 8.488C2.745 8.488 2.435 8.437 2.17 8.335C1.902 8.23 1.678 8.082 1.498 7.891C1.318 7.705 1.182 7.479 1.09 7.214C0.998 6.949 0.952 6.653 0.952 6.327C0.952 6.191 0.961 6.057 0.978 5.924C0.991 5.792 1.01 5.661 1.034 5.532C1.051 5.447 1.069 5.362 1.09 5.277C1.107 5.192 1.127 5.105 1.151 5.017L1.931 5.129C1.883 5.268 1.842 5.431 1.808 5.618C1.771 5.802 1.752 5.999 1.752 6.21C1.752 6.424 1.78 6.614 1.834 6.78C1.885 6.943 1.963 7.079 2.068 7.188C2.177 7.304 2.318 7.392 2.491 7.453C2.665 7.511 2.867 7.54 3.098 7.54L3.485 7.54L3.485 5.414L4.214 5.414L4.214 7.54L9 7.54L9 8.488z" />
    <path id="tckx"
      d="M5.529 7.572L3.485 6.099L3.485 4.993L6.212 7.047L9 4.937L9 6.028L6.9 7.552L9 9.076L9 10.177L6.212 8.066L3.485 10.12L3.485 9.03L5.529 7.572z" />
    <path id="tckT"
      d="M2.384 4.669L2.384 6.962L9 6.962L9 7.88L2.384 7.88L2.384 10.173L1.579 10.173L1.579 4.669L2.384 4.669z" />
    <path id="tckK"
      d="M5.555 7.983L6.492 8.809L9 8.809L9 9.772L1.579 9.772L1.579 8.809L5.203 8.809L4.306 8.09L1.579 5.914L1.579 4.767L4.826 7.361L9 4.594L9 5.741L5.555 7.983z" />
    <clipPath id="tckz">
      <use href="#tcks0" x="277" y="57" />
      <use href="#tcks0" x="189" y="13" />
      <use href="#tcks5" x="365" y="13" />
      <use href="#tcks3" x="79" y="35" />
      <use href="#tcks3" x="101" y="35" />
      <use href="#tcks15" x="167" y="35" />
      <use href="#tcks13" transform="translate(79,79)rotate(-90, 11, 11)" />
      <use href="#tcks3" x="123" y="79" />
      <use href="#tcks0" x="57" y="123" />
      <use href="#tcks0" x="79" y="167" />
      <use href="#tcks0" x="79" y="189" />
      <use href="#tcks0" x="57" y="189" />
      <use href="#tcks5" x="123" y="145" />
      <use href="#tcks5" x="145" y="145" />
      <use href="#tcks2" x="167" y="123" />
      <use href="#tcks0" x="233" y="123" />
      <use href="#tcks3" x="255" y="123" />
      <use href="#tcks15" x="277" y="123" />
      <use href="#tcks16" x="189" y="57" />
      <use href="#tcks11" x="189" y="145" />
      <use href="#tcks11" x="211" y="145" />
      <use href="#tcks3" x="255" y="145" />
      <use href="#tcks15" transform="translate(365,123)rotate(90, 11, 11)" />
      <use href="#tcks0" x="343" y="145" />
      <use href="#tcks3" x="145" y="167" />
      <use href="#tcks16" x="101" y="189"/>
      <use href="#tcks8" transform="translate(57,299)rotate(-90,11,11)" />
      <use href="#tcks15" transform="translate(57,321)rotate(90,11,11)" />
      <use href="#tcks3" x="79" y="255" />
      <use href="#tcks5" x="101" y="255" />
      <use href="#tcks0" x="101" y="277" />
      <use href="#tcks10" x="79" y="299" />
      <use href="#tcks4" x="123" y="277" />
      <use href="#tcks4" x="167" y="189" />
      <use href="#tcks0" x="167" y="211" />
      <use href="#tcks1" x="167" y="233" />
      <use href="#tcks10" x="189" y="189" />
      <use href="#tcks12" x="189" y="233" />
      <use href="#tcks15" x="167" y="255" />
      <use href="#tcks0" x="189" y="277" />
      <use href="#tcks12" x="189" y="299" />
      <use href="#tcks7" transform="translate(233,277)rotate(90,11,11)" />
      <use href="#tcks13" transform="translate(189,343)rotate(-90,11,11)" />
      <use href="#tcks3" x="167" y="343" />
      <use href="#tcks10" x="211" y="321" />
      <use href="#tcks0" x="277" y="321" />
      <use href="#tcks0" x="255" y="189" />
      <use href="#tcks3" x="233" y="211" />
      <use href="#tcks15" x="277" y="189" />
      <use href="#tcks8" transform="translate(255,233)scale(1,-1)" />
      <use href="#tcks8" transform="translate(343,233)rotate(-90,11,11)" />
      <use href="#tcks8" transform="translate(365,233)rotate(-90,11,11)" />
      <use href="#tcks6" x="343" y="255" />
      <use href="#tcks1" x="321" y="277" />
      <use href="#tcks4" transform="translate(365,277)rotate(90,11,11)" />
      <use href="#tcks0" x="365" y="299" />
      <use href="#tcks10" transform="translate(387,343)scale(-1,1)" />
      <use href="#tcks3" x="277" y="233" />
      <use href="#tcks14" x="255" y="233" />
      <use href="#tcks12" x="277" y="299" />
      <use href="#tcks12" x="277" y="343" />
      <use href="#tcks15" x="123" y="365" />
    </clipPath>
  </defs>
  <rect width="400" height="400" fill="url(#tckw)" />
  <g id="tckaddr" fill="#4299E1">
    <use href="#tck0" x="15" y="256" />
    <use href="#tckx" x="15" y="250" />
    <use href="#tckc" x="15" y="244" />
    <use href="#tckC" x="15" y="238" />
    <use href="#tckc" x="15" y="232" />
    <use href="#tck0" x="15" y="226" />
    <use href="#tcka" x="15" y="220" />
    <use href="#tck9" x="15" y="214" />
    <use href="#tckb" x="15" y="208" />
    <use href="#tck0" x="15" y="202" />
    <use href="#tck2" x="15" y="196" />
    <use href="#tck3" x="15" y="190" />
    <use href="#tck1" x="15" y="184" />
    <use href="#tck7" x="15" y="178" />
    <use href="#tck7" x="15" y="172" />
    <use href="#tck5" x="15" y="166" />
    <use href="#tck4" x="15" y="160" />
    <use href="#tck9" x="15" y="154" />
    <use href="#tckf" x="15" y="148" />
    <use href="#tckc" x="15" y="142" />
    <use href="#tckf" x="15" y="136" />
    <use href="#tck2" x="15" y="130" />
    <use href="#tck6" x="15" y="124" />
    <use href="#tckc" x="15" y="118" />
    <use href="#tck9" x="15" y="112" />
    <use href="#tck4" x="15" y="106" />
    <use href="#tck7" x="15" y="100" />
    <use href="#tcke" x="15" y="94" />
    <use href="#tckd" x="15" y="88" />
    <use href="#tckb" x="15" y="82" />
    <use href="#tck5" x="15" y="76" />
    <use href="#tckb" x="15" y="70" />
    <use href="#tckf" x="15" y="64" />
    <use href="#tckD" x="15" y="58" />
    <use href="#tck9" x="15" y="52" />
    <use href="#tckB" x="15" y="46" />
    <use href="#tck2" x="15" y="40" />
    <use href="#tck3" x="15" y="34" />
    <use href="#tck0" x="15" y="28" />
    <use href="#tckc" x="15" y="22" />
    <use href="#tckC" x="15" y="16" />
    <use href="#tckc" x="15" y="10" />
  </g>
  <g transform="translate(10,365)scale(0.23)">
    <path fill="url(#tckp)"
      d="M50,6.25C70,6.25,70,6.25,80,15L90,25c21,25,21,25,0,50L80,85C70,93.75,70,93.75,50,93.75Z" />
    <g clip-path="url(#tcksq)">
      <path fill="#90cdf4" d="M0,50h50V0Z" />
      <path fill="#63B3ED" d="M50,0v50h50Z" />
      <path fill="#3182CE" d="M100,50H50v50Z" />
      <path fill="#4299E1" d="M50,100V50H0Z" />
    </g>
  </g>
  <g fill="#8E2DE2">
    <use href="#tckT" x="15" y="269" />
    <use href="#tckK" x="15" y="275" />
    <use href="#tckC" x="15" y="281" />
    <use href="#tckT" x="15" y="288" />
  </g>
  <g clip-path="url(#tckz)">
    <rect x="0" y="0" width="400" height="400" fill="white" />
    <path filter="url(#tcksam)"
      d="M257.64 313.656C258.601 348.517 141.426 526.8 107.983 527.721C74.5394 528.642 30.9618 521.692 30.0014 486.832C29.041 451.971 31.8738 157.571 65.3173 156.649C107.983 527.721 256.68 278.795 257.64 313.656Z"
      fill="#935BCA" />
    <path filter="url(#tckugk)"
      d="M80.5168 -126.302C127.687 -173.472 209.531 -150.698 274.32 -85.9088C339.11 -21.1195 258.092 283.46 210.922 330.63C163.752 377.8 58.4887 14.4413 -6.30057 -50.348C-71.0899 -115.137 33.3469 -79.1324 80.5168 -126.302Z"
      fill="url(#tckrm)" />
    <ellipse filter="url(#tckaom)" cx="365.58" cy="307.423" rx="275.294" ry="194.025"
      transform="rotate(-67.5082 365.58 307.423)" fill="url(#tckcg2)" />
    <path style="mix-blend-mode:color-dodge" filter="url(#tckcgb)"
      d="M207.169 190.135C227.044 -234.081 457.091 226.686 537.777 130.991C527.14 533.082 371.409 305.018 371.409 305.018C371.409 305.018 315.244 610.522 121.645 559.463C-58.0769 402.397 -38.3402 59.9342 207.169 190.135Z"
      fill="url(#tckcg)" />
    <path filter="url(#tcksum)"
      d="M464.963 179.305C413.519 235.402 317.128 211.669 237.637 138.77C158.146 65.8715 231.27 -289.186 282.715 -345.282C334.159 -401.379 442.691 -72.0634 522.182 0.835473C601.673 73.7344 516.408 123.209 464.963 179.305Z"
      fill="url(#tcksu)" />
  </g>
</svg>