<svg width="743" height="249" viewBox="0 0 743 249" fill="none" xmlns="http://www.w3.org/2000/svg">
  <g clip-path="url(#clip0_511_1714)">
    <rect width="872.019" height="471.435" transform="translate(-10.1792 -163.897)" fill="#6337BA" />
    <g filter="url(#filter0_f_511_1714)">
      <path
        d="M-190.082 80.8237C-152.218 -9.71636 505.53 -353.539 629.89 -301.532C754.249 -249.524 572.584 222.95 307.531 341.623C143.251 488.248 -142.173 325.038 -156.64 318.988C-280.999 266.981 -227.946 171.364 -190.082 80.8237Z"
        fill="url(#paint0_radial_511_1714)" />
    </g>
    <g filter="url(#filter1_f_511_1714)">
      <path
        d="M78.4481 399.18C32.1686 444.632 -32.0137 437.246 -75.618 392.848C-119.222 348.449 -5.29366 86.0726 40.9858 40.6207C87.2653 -4.83131 106.617 220.847 150.221 265.246C193.825 309.644 124.728 353.728 78.4481 399.18Z"
        fill="#935BCA" />
    </g>
    <g style="mix-blend-mode:color-dodge" filter="url(#filter2_f_511_1714)">
      <path
        d="M637.831 -405.479C715.215 -502.585 871.355 -477.571 1004.73 -371.281C1138.11 -264.991 1051.93 315.294 974.547 412.4C897.163 509.506 695.179 -4.72531 561.801 -111.015C428.423 -217.305 560.446 -308.373 637.831 -405.479Z"
        fill="url(#paint1_radial_511_1714)" />
    </g>
    <g style="mix-blend-mode:color-dodge" filter="url(#filter3_f_511_1714)">
      <path
        d="M501.8 -5.59486C565.386 204.07 438.727 428.083 218.899 494.751C-0.928797 561.419 -230.681 445.498 -294.267 235.833C-357.854 26.1679 -231.195 -197.844 -11.3669 -264.513C208.461 -331.181 438.214 -215.26 501.8 -5.59486Z"
        fill="url(#paint2_linear_511_1714)" />
    </g>
  </g>
  <defs>
    <filter id="filter0_f_511_1714" x="-294.758" y="-367.203" width="1025.01" height="830.121"
      filterUnits="userSpaceOnUse" color-interpolation-filters="sRGB">
      <feFlood flood-opacity="0" result="BackgroundImageFix" />
      <feBlend mode="normal" in="SourceGraphic" in2="BackgroundImageFix" result="shape" />
      <feGaussianBlur stdDeviation="30.1729" result="effect1_foregroundBlur_511_1714" />
    </filter>
    <filter id="filter1_f_511_1714" x="-158.038" y="-38.0516" width="394.778" height="540.614"
      filterUnits="userSpaceOnUse" color-interpolation-filters="sRGB">
      <feFlood flood-opacity="0" result="BackgroundImageFix" />
      <feBlend mode="normal" in="SourceGraphic" in2="BackgroundImageFix" result="shape" />
      <feGaussianBlur stdDeviation="36.3295" result="effect1_foregroundBlur_511_1714" />
    </filter>
    <filter id="filter2_f_511_1714" x="444.394" y="-526.6" width="690.155" height="1011.48" filterUnits="userSpaceOnUse"
      color-interpolation-filters="sRGB">
      <feFlood flood-opacity="0" result="BackgroundImageFix" />
      <feBlend mode="normal" in="SourceGraphic" in2="BackgroundImageFix" result="shape" />
      <feGaussianBlur stdDeviation="30.1729" result="effect1_foregroundBlur_511_1714" />
    </filter>
    <filter id="filter3_f_511_1714" x="-346.868" y="-407.437" width="1215.86" height="957.201"
      filterUnits="userSpaceOnUse" color-interpolation-filters="sRGB">
      <feFlood flood-opacity="0" result="BackgroundImageFix" />
      <feBlend mode="normal" in="SourceGraphic" in2="BackgroundImageFix" result="shape" />
      <feGaussianBlur stdDeviation="18.0883" result="effect1_foregroundBlur_511_1714" />
    </filter>
    <radialGradient id="paint0_radial_511_1714" cx="0" cy="0" r="1" gradientUnits="userSpaceOnUse"
      gradientTransform="translate(736.287 92.3314) rotate(-147.928) scale(649.928 550.191)">
      <stop offset="0.447917" stop-color="#7D8AFA" />
      <stop offset="0.572917" stop-color="#5698E2" />
      <stop offset="0.869792" stop-color="#2A4DC1" />
    </radialGradient>
    <radialGradient id="paint1_radial_511_1714" cx="0" cy="0" r="1" gradientUnits="userSpaceOnUse"
      gradientTransform="translate(998.489 -399.709) rotate(165.867) scale(1422.01 1203.79)">
      <stop offset="0.119659" stop-color="#2A4DC1" />
      <stop offset="0.284307" stop-color="#935BCA" />
      <stop offset="0.465279" stop-color="#5698E2" />
    </radialGradient>
    <linearGradient id="paint2_linear_511_1714" x1="-351.63" y1="81.546" x2="587.026" y2="-264.263"
      gradientUnits="userSpaceOnUse">
      <stop stop-color="#A0A2B4" />
      <stop offset="0.203125" stop-color="#CFD3F2" />
      <stop offset="0.4375" stop-color="#5698E2" />
      <stop offset="0.505208" stop-color="#2A4DC1" />
    </linearGradient>
    <clipPath id="clip0_511_1714">
      <rect width="872.019" height="471.435" fill="white" transform="translate(-10.1792 -163.897)" />
    </clipPath>
  </defs>
</svg>