<svg width="32" height="32" xmlns="http://www.w3.org/2000/svg">
    <path fill-rule="evenodd" clip-rule="evenodd" d="M31.967 16c0 8.825-7.154 15.978-15.978 15.978C7.164 31.978.01 24.825.01 16S7.164.02 15.989.02C24.813.021 31.967 7.174 31.967 16Zm-20.506 6.358H8.36c-.652 0-.974 0-1.17-.125a.788.788 0 0 1-.357-.616c-.012-.232.15-.515.47-1.08L14.962 7.04c.325-.573.49-.86.699-.965a.79.79 0 0 1 .714 0c.208.107.374.392.699.965l1.573 2.747.008.014c.352.615.53.927.61 1.254a2.36 2.36 0 0 1 0 1.092c-.08.329-.256.644-.614 1.268l-4.021 7.109-.01.018c-.355.62-.534.934-.783 1.171a2.343 2.343 0 0 1-.954.553c-.326.091-.69.091-1.421.091Zm7.83 0h4.444c.655 0 .986 0 1.182-.13a.785.785 0 0 0 .357-.62c.012-.223-.147-.495-.455-1.027a6.259 6.259 0 0 1-.032-.056l-2.226-3.807-.024-.044c-.314-.528-.47-.796-.674-.898a.781.781 0 0 0-.71 0c-.204.106-.37.384-.695.946L18.24 20.53l-.007.013c-.325.56-.488.84-.476 1.07a.796.796 0 0 0 .357.62c.192.126.523.126 1.178.126Z" fill="#E84142"/>
</svg>
