<svg viewBox="0 -10 60 60" xmlns="http://www.w3.org/2000/svg">
  <g clip-rule="evenodd" fill-rule="evenodd">
    <path
      d="m18.7 42.6c-5.6 0-10.9-1.2-15.5-3.3l18.6-17c-2.6-2.1-4.2-5.3-4.2-8.9 0-3.7 1.7-6.9 4.4-9v-2.6h7.2c2.9 0 5.5 1.1 7.5 2.8 2-1.7 4.6-2.8 7.5-2.8h7.2v2.5c2.7 2.1 4.4 5.4 4.4 9 0 4.6-2.7 8.6-6.6 10.4-1.4 4.1-4 7.8-7.5 10.8v5.3h-8.8c-4.4 1.8-9.1 2.8-14.2 2.8zm10.4-20.4c2.1 0 4-.7 5.5-1.9l2 4.4 2-4.5c1.5 1.2 3.5 2 5.6 2 4.9 0 8.9-4 8.9-8.9s-4-8.9-8.9-8.9c-3.2 0-6 1.7-7.5 4.2-1.6-2.5-4.3-4.2-7.5-4.2-4.9 0-8.9 4-8.9 8.9s3.9 8.9 8.8 8.9zm0-2.7c3.4 0 6.2-2.8 6.2-6.2s-2.8-6.2-6.2-6.2-6.2 2.8-6.2 6.2c0 3.5 2.8 6.2 6.2 6.2zm0-2.6c2 0 3.5-1.6 3.5-3.5 0-2-1.6-3.5-3.5-3.5s-3.5 1.6-3.5 3.5 1.6 3.5 3.5 3.5zm21.3-3.6c0 3.4-2.8 6.2-6.2 6.2s-6.2-2.8-6.2-6.2 2.8-6.2 6.2-6.2 6.2 2.8 6.2 6.2zm-2.7 0c0 2-1.6 3.5-3.5 3.5-2 0-3.5-1.6-3.5-3.5 0-2 1.6-3.5 3.5-3.5s3.5 1.6 3.5 3.5z"
      fill="#fff" />
    <path
      d="m0 39.8 19.2-17.6c-2.1-2.4-3.4-5.5-3.4-8.9 0-3.9 1.7-7.4 4.4-9.9v-3.4h8.9c2.8 0 5.4.9 7.5 2.3 2.2-1.4 4.8-2.3 7.6-2.3h8.9v3.5c2.7 2.4 4.4 6 4.4 9.9 0 5-2.8 9.4-6.9 11.7-1.5 3.9-3.9 7.4-7.2 10.4v6.3h-10.3c-4.4 1.7-9.3 2.7-14.4 2.7-5.9 0-11.4-1.3-16.3-3.5zm32.8.1h8.8v-5.3c3.5-3 6.1-6.7 7.5-10.8 3.9-1.8 6.6-5.8 6.6-10.4 0-3.7-1.7-6.9-4.4-9v-2.6h-7.2c-2.9 0-5.5 1.1-7.5 2.8-2-1.7-4.6-2.8-7.5-2.8h-7.1v2.5c-2.7 2.1-4.4 5.4-4.4 9 0 2.9 1.1 5.6 2.9 7.7.4.4.8.9 1.3 1.2l-18.6 17c.6.3 1.2.5 1.8.8 4.1 1.6 8.8 2.5 13.7 2.5 5.1.1 9.8-.9 14.1-2.6zm2.7-32.7c-1.6-1.7-3.9-2.7-6.4-2.7-4.9 0-8.9 4-8.9 8.9s4 8.9 8.9 8.9c1.4 0 2.8-.3 4-1 .5-.3 1.1-.6 1.5-1l2 4.4 2-4.5c.5.4 1 .7 1.5 1 1.2.6 2.6 1 4 1 4.9 0 8.9-4 8.9-8.9s-4-8.9-8.9-8.9c-2.5 0-4.8 1-6.4 2.7-.4.5-.8 1-1.2 1.5-.2-.5-.6-1-1-1.4zm1.1 13.1 1-2.3c-.4-.6-.8-1.2-1-1.9-.3.7-.6 1.4-1 2zm-7.5-5.2c1 0 1.8-.8 1.8-1.8s-.8-1.8-1.8-1.8-1.8.8-1.8 1.8c.1 1 .8 1.8 1.8 1.8zm15.1 0c1 0 1.8-.8 1.8-1.8s-.8-1.8-1.8-1.8-1.8.8-1.8 1.8.8 1.8 1.8 1.8zm-8.9-1.8c0 3.4-2.8 6.2-6.2 6.2s-6.2-2.8-6.2-6.2 2.8-6.2 6.2-6.2 6.2 2.8 6.2 6.2zm-2.6 0c0 2-1.6 3.5-3.5 3.5s-3.5-1.6-3.5-3.5c0-2 1.6-3.5 3.5-3.5s3.5 1.6 3.5 3.5zm11.5 6.2c3.4 0 6.2-2.8 6.2-6.2s-2.8-6.2-6.2-6.2-6.2 2.8-6.2 6.2c0 3.5 2.7 6.2 6.2 6.2zm0-2.6c2 0 3.5-1.6 3.5-3.5 0-2-1.6-3.5-3.5-3.5-2 0-3.5 1.6-3.5 3.5-.1 1.9 1.5 3.5 3.5 3.5z" />
    <path
      d="m18.7 42.6c-5.6 0-10.9-1.2-15.5-3.3l18.6-17c-2.6-2.1-4.2-5.3-4.2-8.9 0-3.7 1.7-6.9 4.4-9v-2.6h7.2c2.9 0 5.5 1.1 7.5 2.8 2-1.7 4.6-2.8 7.5-2.8h7.2v2.5c2.7 2.1 4.4 5.4 4.4 9 0 4.6-2.7 8.6-6.6 10.4-1.4 4.1-4 7.8-7.5 10.8v5.3h-8.8c-4.4 1.8-9.1 2.8-14.2 2.8zm10.4-20.4c2.1 0 4-.7 5.5-1.9l2 4.4 2-4.5c1.5 1.2 3.5 2 5.6 2 4.9 0 8.9-4 8.9-8.9s-4-8.9-8.9-8.9c-3.2 0-6 1.7-7.5 4.2-1.6-2.5-4.3-4.2-7.5-4.2-4.9 0-8.9 4-8.9 8.9s3.9 8.9 8.8 8.9zm0-2.7c3.4 0 6.2-2.8 6.2-6.2s-2.8-6.2-6.2-6.2-6.2 2.8-6.2 6.2c0 3.5 2.8 6.2 6.2 6.2zm0-2.6c2 0 3.5-1.6 3.5-3.5 0-2-1.6-3.5-3.5-3.5s-3.5 1.6-3.5 3.5 1.6 3.5 3.5 3.5zm21.3-3.6c0 3.4-2.8 6.2-6.2 6.2s-6.2-2.8-6.2-6.2 2.8-6.2 6.2-6.2 6.2 2.8 6.2 6.2zm-2.7 0c0 2-1.6 3.5-3.5 3.5-2 0-3.5-1.6-3.5-3.5 0-2 1.6-3.5 3.5-3.5s3.5 1.6 3.5 3.5z"
      fill="#fff" />
  </g>
  <path d="m37.9 13.3c0 4.9-4 8.9-8.9 8.9s-8.9-4-8.9-8.9 4-8.9 8.9-8.9 8.9 3.9 8.9 8.9z" />
  <path d="m53 13.3c0 4.9-4 8.9-8.9 8.9s-8.9-4-8.9-8.9 4-8.9 8.9-8.9 8.9 3.9 8.9 8.9z" />
  <path d="m35.3 13.3c0 3.4-2.8 6.2-6.2 6.2s-6.2-2.8-6.2-6.2 2.7-6.3 6.2-6.3 6.2 2.8 6.2 6.3z" fill="#fff" />

  <path d="m50.3 13.3c0 3.4-2.8 6.2-6.2 6.2s-6.2-2.8-6.2-6.2 2.8-6.3 6.2-6.3 6.2 2.8 6.2 6.3z" fill="#fff" />
  <!-- sol göz bebeği -->
  <path d="m32.6 13.3c0 2-1.6 3.6-3.5 3.6-2 0-3.5-1.6-3.5-3.6s1.6-3.6 3.5-3.6 3.5 1.6 3.5 3.6z" />
  <!-- sağ göz bebeği -->
  <path d="m47.7 13.3c0 2-1.6 3.6-3.5 3.6-2 0-3.5-1.6-3.5-3.6s1.6-3.6 3.5-3.6 3.5 1.6 3.5 3.6z" />
  <path d="m36.6 24.6-3.1-6.9h6.1z" />
</svg>