<svg xmlns="http://www.w3.org/2000/svg" width="16" height="16" fill="#666">
  <path d="M 8 0 C 3.582031 0 0 3.582031 0 8 C 0 12.417969 3.582031 16 8 16 C 12.417969 16 16 12.417969 16 8 C 16 3.582031 12.417969 0 8 0 Z M 13.167969 12.203125 C 12.996094 11.8125 12.644531 11.542969 11.921875 11.375 C 10.394531 11.023438 8.96875 10.714844 9.660156 9.414062 C 11.757812 5.453125 10.214844 3.332031 8 3.332031 C 5.742188 3.332031 4.238281 5.53125 6.339844 9.414062 C 7.050781 10.722656 5.574219 11.03125 4.078125 11.375 C 3.355469 11.542969 3.007812 11.816406 2.835938 12.207031 C 1.898438 11.058594 1.332031 9.59375 1.332031 8 C 1.332031 4.324219 4.324219 1.332031 8 1.332031 C 11.675781 1.332031 14.667969 4.324219 14.667969 8 C 14.667969 9.59375 14.101562 11.054688 13.167969 12.203125 Z M 13.167969 12.203125 "/>
</svg>