<svg viewBox="65 50 300 300" fill="none" xmlns="http://www.w3.org/2000/svg">
  <defs>
    <linearGradient id="a0" x1="152.429" y1="190.513" x2="355.041" y2="247.777"
      gradientUnits="userSpaceOnUse">
      <stop stop-color="#8697FF" />
      <stop offset="1" stop-color="#ABB7FF" />
    </linearGradient>
    <linearGradient id="a1" x1="320.84" y1="186.65" x2="174.226" y2="40.1713"
      gradientUnits="userSpaceOnUse">
      <stop stop-color="#8697FF" />
      <stop offset="1" stop-color="#5156D8" stop-opacity="0" />
    </linearGradient>
    <linearGradient id="a2" x1="245.383" y1="268.857" x2="104.784" y2="188.294"
      gradientUnits="userSpaceOnUse">
      <stop stop-color="#465EED" />
      <stop offset="1" stop-color="#8697FF" stop-opacity="0" />
    </linearGradient>
    <linearGradient id="a3" x1="164.519" y1="188.996" x2="259.791" y2="309.641"
      gradientUnits="userSpaceOnUse">
      <stop stop-color="#8898FF" />
      <stop offset="0.983895" stop-color="#6277F1" />
    </linearGradient>
  </defs>
  <path
    d="M357.417 213.349C368.922 187.561 312.047 115.515 257.711 85.4993C223.462 62.2464 187.774 65.4409 180.547 75.6507C164.684 98.0572 233.071 117.043 278.807 139.198C268.975 143.483 259.71 151.171 254.262 161.004C237.212 142.327 199.788 126.242 155.875 139.198C126.283 147.929 101.69 168.512 92.1847 199.601C89.8751 198.571 87.318 197.999 84.6277 197.999C74.3399 197.999 66 206.367 66 216.689C66 227.012 74.3399 235.38 84.6277 235.38C86.5346 235.38 92.4968 234.096 92.4968 234.096L187.774 234.789C149.671 295.44 119.558 304.306 119.558 314.814C119.558 325.321 148.371 322.474 159.189 318.557C210.978 299.808 266.602 241.373 276.147 224.552C316.23 229.57 349.916 230.163 357.417 213.349Z"
    fill="url(#a0)" />
  <path fill-rule="evenodd" clip-rule="evenodd"
    d="M278.802 139.201C278.805 139.202 278.808 139.204 278.81 139.205C280.93 138.367 280.587 135.225 280.005 132.758C278.667 127.088 255.583 104.216 233.905 93.9711C204.366 80.0116 182.615 80.7312 179.401 87.1653C185.418 99.5389 213.313 111.156 242.446 123.289C254.875 128.466 267.53 133.736 278.807 139.199C278.806 139.2 278.804 139.201 278.802 139.201Z"
    fill="url(#a1)" />
  <path fill-rule="evenodd" clip-rule="evenodd"
    d="M241.318 263.737C235.344 261.446 228.596 259.345 220.924 257.438C229.104 242.752 230.821 221.01 223.095 207.264C212.253 187.972 198.643 177.704 167.018 177.704C149.623 177.704 102.79 183.583 101.959 222.81C101.871 226.926 101.956 230.698 102.253 234.167L187.774 234.788C176.245 253.141 165.447 266.752 155.993 277.101C167.344 280.019 176.71 282.469 185.309 284.719C193.469 286.853 200.937 288.806 208.754 290.808C220.546 282.188 231.631 272.788 241.318 263.737Z"
    fill="url(#a2)" />
  <path
    d="M91.0436 230.136C94.5372 259.935 111.416 271.613 145.905 275.069C180.395 278.525 200.179 276.207 226.517 278.611C248.515 280.619 268.157 291.867 275.444 287.98C282.001 284.482 278.333 271.844 269.558 263.735C258.183 253.225 242.441 245.917 214.741 243.324C220.262 228.159 218.715 206.895 210.141 195.326C197.745 178.599 174.864 171.036 145.905 174.341C115.65 177.793 86.6591 192.739 91.0436 230.136Z"
    fill="url(#a3)" />
</svg>