<?xml version="1.0" encoding="UTF-8"?>
<svg height="32" width="32" xmlns="http://www.w3.org/2000/svg" xmlns:xlink="http://www.w3.org/1999/xlink"
  viewBox="-13 -20 140 140">
  <defs>
    <linearGradient id="purple-gradient" x2="7%" y2="100%">
      <stop offset="0%" stop-color="#8e2de2" />
      <stop offset="20%" stop-color="#6337ba" />
      <stop offset="42%" stop-color="#a36dd3" />
      <stop offset="80%" stop-color="#4a00e0" />
    </linearGradient>
    <clipPath id="squircle">
      <path d="M25,25c25-25,25-25,50,0s25,25,0,50s-25,25-50,0s-25-25,0-50Z" />
    </clipPath>
  </defs>
  <circle cx="57" cy="50" r="70" fill="white" stroke="white" />
  <path fill="url(#purple-gradient)"
    d="M50,6.25C70,6.25,70,6.25,80,15L90,25c21,25,21,25,0,50L80,85C70,93.75,70,93.75,50,93.75Z" />
  <g clip-path="url(#squircle)">
    <path fill="#90cdf4" d="M0,50h50V0Z" stroke="none" />
    <path fill="#63B3ED" d="M50,0v50h50Z" stroke="none" />
    <path fill="#3182CE" d="M100,50H50v50Z" stroke="none " />
    <path fill="#4299E1" d="M50,100V50H0Z" stroke="none" />
  </g>
</svg>