<svg width="32" height="32" viewBox="6 -12 100 100" xmlns="http://www.w3.org/2000/svg">
  <circle cx="56" cy="38" r="50" fill="#009393"/>
  <path fill-rule="evenodd" clip-rule="evenodd" d="M79.8419 14.8003V23.5597H61.7343V29.6329C74.4518 30.2819 83.9934 32.9475 84.0642 36.1425L84.0638 42.803C83.993 45.998 74.4518 48.6635 61.7343 49.3125V64.2168H49.7105V49.3125C36.9929 48.6635 27.4513 45.998 27.3805 42.803L27.381 36.1425C27.4517 32.9475 36.9929 30.2819 49.7105 29.6329V23.5597H31.6028V14.8003H79.8419ZM55.7224 44.7367C69.2943 44.7367 80.6382 42.4827 83.4143 39.4727C81.0601 36.9202 72.5448 34.9114 61.7343 34.3597V40.7183C59.7966 40.8172 57.7852 40.8693 55.7224 40.8693C53.6595 40.8693 51.6481 40.8172 49.7105 40.7183V34.3597C38.8999 34.9114 30.3846 36.9202 28.0304 39.4727C30.8066 42.4827 42.1504 44.7367 55.7224 44.7367Z" fill="#fff"/>
</svg>
