<svg width="280" height="280" xmlns="http://www.w3.org/2000/svg"><g fill="none" fill-rule="evenodd"><path d="M228.124 179.948c0 33.361-27.45 60.406-61.312 60.406H51v-40.271h115.812c11.287 0 20.437-9.015 20.437-20.135 0-11.12-9.15-20.136-20.437-20.136h-40.875v-40.27h40.875c11.287 0 20.437-9.015 20.437-20.136 0-11.12-9.15-20.135-20.437-20.135H51V39h115.812c33.862 0 61.312 27.045 61.312 60.406 0 15.471-5.903 29.584-15.612 40.27 9.709 10.688 15.612 24.8 15.612 40.272Z" fill="#333" opacity=".8"/><path d="M51 200.083h99.47c-21.128 24.453-54.768 40.27-92.658 40.27-2.286 0-4.558-.057-6.812-.17v-40.1Zm120.308-40.27H132.75V119.54h38.558a88.416 88.416 0 0 1 2.316 20.136c0 6.896-.797 13.63-2.316 20.135ZM150.47 79.27H51v-40.1c2.254-.113 4.526-.171 6.812-.171 37.89 0 71.53 15.817 92.659 40.27Z" fill="#000" fill-rule="nonzero" opacity=".12"/><path d="M51 39c56.436 0 102.187 45.075 102.187 100.677 0 55.602-45.75 100.677-102.187 100.677v-40.271c33.862 0 61.312-27.045 61.312-60.406 0-33.362-27.45-60.406-61.312-60.406V39Z" fill="#aaa" fill-rule="nonzero"/></g></svg>