<svg width="16" height="16" xmlns="http://www.w3.org/2000/svg">
    <path d="M15.11 11.496c0 2.502-2.06 4.53-4.6 4.53H1.826v-3.02h8.686c.846 0 1.533-.676 1.533-1.51s-.687-1.51-1.533-1.51H7.445v-3.02h3.066c.846 0 1.533-.676 1.533-1.51 0-.835-.687-1.51-1.533-1.51H1.825V.924h8.686c2.54 0 4.598 2.028 4.598 4.53 0 1.16-.442 2.22-1.17 3.02a4.476 4.476 0 0 1 1.17 3.021Z" fill="#333" opacity=".8"/>
    <path d="M1.825 13.006h7.46c-1.584 1.834-4.107 3.02-6.95 3.02-.17 0-.341-.004-.51-.012v-3.008Zm9.023-3.02H7.956v-3.02h2.892a6.631 6.631 0 0 1 .174 1.51c0 .517-.06 1.022-.174 1.51Zm-1.563-6.04h-7.46V.937c.169-.009.34-.013.51-.013 2.843 0 5.366 1.186 6.95 3.02Z" opacity=".12"/>
    <path d="M1.825.925c4.233 0 7.664 3.38 7.664 7.55s-3.431 7.552-7.664 7.552v-3.02c2.54 0 4.598-2.03 4.598-4.531 0-2.502-2.058-4.53-4.598-4.53V.924Z" fill="#aaa"/>
</svg>
