<?xml version="1.0" encoding="UTF-8"?>
<svg width="280px" height="280px" viewBox="0 0 280 280" version="1.1" xmlns="http://www.w3.org/2000/svg" xmlns:xlink="http://www.w3.org/1999/xlink">
    <g id="debank-symbol" stroke="none" stroke-width="1" fill="none" fill-rule="evenodd">
        <g id="Group" transform="translate(51.000000, 39.000000)">
            <path d="M177.124149,140.947599 C177.124149,174.308974 149.67374,201.353712 115.811944,201.353712 L2.57739432e-12,201.353712 L2.57739432e-12,161.08297 L115.811944,161.08297 C127.099209,161.08297 136.249345,152.068057 136.249345,140.947599 C136.249345,129.82714 127.099209,120.812227 115.811944,120.812227 L74.93714,120.812227 L74.93714,80.541485 L115.811944,80.541485 C127.099209,80.541485 136.249345,71.5265722 136.249345,60.4061137 C136.249345,49.2856552 127.099209,40.2707425 115.811944,40.2707425 L2.57739432e-12,40.2707425 L2.57739432e-12,7.71642598e-11 L115.811944,7.71642598e-11 C149.67374,7.71642598e-11 177.124149,27.0447383 177.124149,60.4061137 C177.124149,75.8772155 171.220733,89.9898772 161.512151,100.676856 C171.220733,111.363835 177.124149,125.476497 177.124149,140.947599 Z" id="Path" fill="#333" opacity="0.800000012"></path>
            <path d="M1.35059965e-13,161.08297 L99.4705039,161.08297 C78.3416263,185.536305 44.7019157,201.353712 6.81246727,201.353712 C4.52555748,201.353712 2.25412956,201.296089 1.35059965e-13,201.182422 L1.35059965e-13,161.08297 L1.35059965e-13,161.08297 Z M120.307752,120.812227 L81.7496072,120.812227 L81.7496072,80.541485 L120.307752,80.541485 C121.826924,87.0474235 122.624411,93.7811794 122.624411,100.676856 C122.624411,107.572533 121.826924,114.306289 120.307752,120.812227 Z M99.4705039,40.2707425 L7.33996331e-12,40.2707425 L7.33996331e-12,0.171290284 C2.25412956,0.0576231239 4.52555748,0 6.81246727,0 C44.7019157,0 78.3416263,15.8174073 99.4705039,40.2707425 L99.4705039,40.2707425 Z" id="Shape" fill="#000000" fill-rule="nonzero" opacity="0.119999997"></path>
            <path d="M2.35229438e-12,7.72542997e-11 C56.4363267,7.72542997e-11 102.187009,45.0745639 102.187009,100.676856 C102.187009,156.279149 56.4363267,201.353712 2.35229438e-12,201.353712 L2.35229438e-12,161.08297 C33.861796,161.08297 61.3122054,134.038232 61.3122054,100.676856 C61.3122054,67.3154808 33.861796,40.2707425 2.35229438e-12,40.2707425 L2.35229438e-12,7.72542997e-11 Z" id="Path" fill="#aaa" fill-rule="nonzero"></path>
        </g>
    </g>
</svg>