<svg xmlns="http://www.w3.org/2000/svg" xmlns:xlink="http://www.w3.org/1999/xlink" width="20px" height="20px" viewBox="0 0 20 20" version="1.1">
  <g>
    <path d="M 4.457031 7.984375 C 4.457031 8.253906 4.5625 8.507812 4.753906 8.699219 C 4.941406 8.886719 5.199219 8.992188 5.464844 8.992188 L 5.464844 14.03125 C 5.464844 14.566406 5.679688 15.078125 6.054688 15.457031 C 6.433594 15.832031 6.945312 16.046875 7.480469 16.046875 L 12.519531 16.046875 C 13.054688 16.046875 13.566406 15.832031 13.945312 15.457031 C 14.320312 15.078125 14.535156 14.566406 14.535156 14.03125 L 14.535156 8.992188 C 14.800781 8.992188 15.058594 8.886719 15.246094 8.699219 C 15.4375 8.507812 15.542969 8.253906 15.542969 7.984375 L 15.542969 6.976562 C 15.542969 6.710938 15.4375 6.453125 15.246094 6.265625 C 15.058594 6.074219 14.800781 5.96875 14.535156 5.96875 L 12.519531 5.96875 L 12.519531 4.960938 C 12.519531 4.695312 12.414062 4.4375 12.222656 4.25 C 12.035156 4.0625 11.777344 3.953125 11.511719 3.953125 L 8.488281 3.953125 C 8.222656 3.953125 7.964844 4.0625 7.777344 4.25 C 7.585938 4.4375 7.480469 4.695312 7.480469 4.960938 L 7.480469 5.96875 L 5.464844 5.96875 C 5.199219 5.96875 4.941406 6.074219 4.753906 6.265625 C 4.5625 6.453125 4.457031 6.710938 4.457031 6.976562 Z M 13.527344 14.03125 C 13.527344 14.296875 13.421875 14.554688 13.230469 14.742188 C 13.042969 14.933594 12.785156 15.039062 12.519531 15.039062 L 7.480469 15.039062 C 7.214844 15.039062 6.957031 14.933594 6.769531 14.742188 C 6.578125 14.554688 6.472656 14.296875 6.472656 14.03125 L 6.472656 8.992188 L 13.527344 8.992188 Z M 8.488281 4.960938 L 11.511719 4.960938 L 11.511719 5.96875 L 8.488281 5.96875 Z M 5.464844 6.976562 L 14.535156 6.976562 L 14.535156 7.984375 L 5.464844 7.984375 Z M 5.464844 6.976562 "/>
    <path d="M 7.984375 14.03125 C 8.117188 14.03125 8.246094 13.976562 8.339844 13.882812 C 8.4375 13.789062 8.488281 13.660156 8.488281 13.527344 L 8.488281 10.503906 C 8.488281 10.324219 8.394531 10.15625 8.238281 10.066406 C 8.082031 9.976562 7.890625 9.976562 7.734375 10.066406 C 7.578125 10.15625 7.480469 10.324219 7.480469 10.503906 L 7.480469 13.527344 C 7.480469 13.660156 7.535156 13.789062 7.628906 13.882812 C 7.722656 13.976562 7.851562 14.03125 7.984375 14.03125 Z M 7.984375 14.03125 "/>
    <path d="M 10 14.03125 C 10.132812 14.03125 10.261719 13.976562 10.355469 13.882812 C 10.449219 13.789062 10.503906 13.660156 10.503906 13.527344 L 10.503906 10.503906 C 10.503906 10.324219 10.40625 10.15625 10.25 10.066406 C 10.097656 9.976562 9.902344 9.976562 9.75 10.066406 C 9.59375 10.15625 9.496094 10.324219 9.496094 10.503906 L 9.496094 13.527344 C 9.496094 13.660156 9.550781 13.789062 9.644531 13.882812 C 9.738281 13.976562 9.867188 14.03125 10 14.03125 Z M 10 14.03125 "/>
    <path d="M 12.015625 14.03125 C 12.148438 14.03125 12.277344 13.976562 12.371094 13.882812 C 12.464844 13.789062 12.519531 13.660156 12.519531 13.527344 L 12.519531 10.503906 C 12.519531 10.324219 12.421875 10.15625 12.265625 10.066406 C 12.109375 9.976562 11.917969 9.976562 11.761719 10.066406 C 11.605469 10.15625 11.511719 10.324219 11.511719 10.503906 L 11.511719 13.527344 C 11.511719 13.660156 11.566406 13.789062 11.660156 13.882812 C 11.753906 13.976562 11.882812 14.03125 12.015625 14.03125 Z M 12.015625 14.03125 "/>
  </g>
</svg>
