<svg width="32" height="32" viewBox="0 0 400 400" version="1.1" xmlns="http://www.w3.org/2000/svg" xmlns:xlink="http://www.w3.org/1999/xlink">
  <defs>
    <linearGradient x1="32.5002914%" y1="0%" x2="67.4997086%" y2="100%" id="g1">
      <stop stop-color="#BAE1EB" offset="0%"></stop>
      <stop stop-color="#6061E6" offset="54.8%"></stop>
      <stop stop-color="#006BFF" offset="100%"></stop>
    </linearGradient>
  </defs>
  <circle fill="#fff" cx="200" cy="200" r="200" stroke="#000" stroke-width="0.5px"></circle>
    <path d="M133,69 L163.052612,77.0365641 L163.052612,299.060702 C220.952615,291.207368 251.314195,255.948194 257.24511,189.913073 L257.41736,187.902585 L192.702402,170.212557 L192.702402,139.380719 L287.989399,165.426463 L288,180.576655 L287.989399,181.041865 C287.854621,186.175737 287.333679,191.144001 286.817279,195.939127 C279.141256,267.2347 245.025141,302.299023 205.651642,318.352225 C180.503026,327.240288 156.285812,331.443871 133,330.962974 L133,69 Z M192.668049,84.8735913 L262.995888,103.662219 L262.995888,134.816682 L192.668049,114.984278 L192.668049,84.8735913 Z" id="Shape" fill="url(#g1)"></path>
</svg>